solid OpenSCAD_Model
  facet normal 0.999506 0.0314383 0
    outer loop
      vertex 2 0 4
      vertex 1.99605 0.125581 -4
      vertex 1.99605 0.125581 4
    endloop
  endfacet
  facet normal 0.999506 0.0314383 0
    outer loop
      vertex 1.99605 0.125581 -4
      vertex 2 0 4
      vertex 2 0 -4
    endloop
  endfacet
  facet normal 0.995565 0.0940767 0
    outer loop
      vertex 1.99605 0.125581 4
      vertex 1.98423 0.250666 -4
      vertex 1.98423 0.250666 4
    endloop
  endfacet
  facet normal 0.995565 0.0940767 0
    outer loop
      vertex 1.98423 0.250666 -4
      vertex 1.99605 0.125581 4
      vertex 1.99605 0.125581 -4
    endloop
  endfacet
  facet normal 0.987682 0.156473 0
    outer loop
      vertex 1.98423 0.250666 4
      vertex 1.96457 0.374763 -4
      vertex 1.96457 0.374763 4
    endloop
  endfacet
  facet normal 0.987682 0.156473 0
    outer loop
      vertex 1.96457 0.374763 -4
      vertex 1.98423 0.250666 4
      vertex 1.98423 0.250666 -4
    endloop
  endfacet
  facet normal 0.975931 0.218081 0
    outer loop
      vertex 1.96457 0.374763 4
      vertex 1.93717 0.49738 -4
      vertex 1.93717 0.49738 4
    endloop
  endfacet
  facet normal 0.975931 0.218081 0
    outer loop
      vertex 1.93717 0.49738 -4
      vertex 1.96457 0.374763 4
      vertex 1.96457 0.374763 -4
    endloop
  endfacet
  facet normal 0.960279 0.279041 0
    outer loop
      vertex 1.93717 0.49738 4
      vertex 1.90211 0.618034 -4
      vertex 1.90211 0.618034 4
    endloop
  endfacet
  facet normal 0.960279 0.279041 0
    outer loop
      vertex 1.90211 0.618034 -4
      vertex 1.93717 0.49738 4
      vertex 1.93717 0.49738 -4
    endloop
  endfacet
  facet normal 0.940881 0.338738 0
    outer loop
      vertex 1.90211 0.618034 4
      vertex 1.85955 0.736249 -4
      vertex 1.85955 0.736249 4
    endloop
  endfacet
  facet normal 0.940881 0.338738 0
    outer loop
      vertex 1.85955 0.736249 -4
      vertex 1.90211 0.618034 4
      vertex 1.90211 0.618034 -4
    endloop
  endfacet
  facet normal 0.917752 0.397154 0
    outer loop
      vertex 1.85955 0.736249 4
      vertex 1.80965 0.851559 -4
      vertex 1.80965 0.851559 4
    endloop
  endfacet
  facet normal 0.917752 0.397154 0
    outer loop
      vertex 1.80965 0.851559 -4
      vertex 1.85955 0.736249 4
      vertex 1.85955 0.736249 -4
    endloop
  endfacet
  facet normal 0.891008 0.453988 0
    outer loop
      vertex 1.80965 0.851559 4
      vertex 1.75261 0.963507 -4
      vertex 1.75261 0.963507 4
    endloop
  endfacet
  facet normal 0.891008 0.453988 0
    outer loop
      vertex 1.75261 0.963507 -4
      vertex 1.80965 0.851559 4
      vertex 1.80965 0.851559 -4
    endloop
  endfacet
  facet normal 0.860762 0.509008 0
    outer loop
      vertex 1.75261 0.963507 4
      vertex 1.68866 1.07165 -4
      vertex 1.68866 1.07165 4
    endloop
  endfacet
  facet normal 0.860762 0.509008 0
    outer loop
      vertex 1.68866 1.07165 -4
      vertex 1.75261 0.963507 4
      vertex 1.75261 0.963507 -4
    endloop
  endfacet
  facet normal 0.827058 0.562116 0
    outer loop
      vertex 1.68866 1.07165 4
      vertex 1.61803 1.17557 -4
      vertex 1.61803 1.17557 4
    endloop
  endfacet
  facet normal 0.827058 0.562116 0
    outer loop
      vertex 1.61803 1.17557 -4
      vertex 1.68866 1.07165 4
      vertex 1.68866 1.07165 -4
    endloop
  endfacet
  facet normal 0.790191 0.61286 0
    outer loop
      vertex 1.61803 1.17557 4
      vertex 1.54103 1.27485 -4
      vertex 1.54103 1.27485 4
    endloop
  endfacet
  facet normal 0.790191 0.61286 0
    outer loop
      vertex 1.54103 1.27485 -4
      vertex 1.61803 1.17557 4
      vertex 1.61803 1.17557 -4
    endloop
  endfacet
  facet normal 0.750086 0.66134 0
    outer loop
      vertex 1.54103 1.27485 4
      vertex 1.45794 1.36909 -4
      vertex 1.45794 1.36909 4
    endloop
  endfacet
  facet normal 0.750086 0.66134 0
    outer loop
      vertex 1.45794 1.36909 -4
      vertex 1.54103 1.27485 4
      vertex 1.54103 1.27485 -4
    endloop
  endfacet
  facet normal 0.707107 0.707107 0
    outer loop
      vertex 1.45794 1.36909 4
      vertex 1.36909 1.45794 -4
      vertex 1.36909 1.45794 4
    endloop
  endfacet
  facet normal 0.707107 0.707107 0
    outer loop
      vertex 1.36909 1.45794 -4
      vertex 1.45794 1.36909 4
      vertex 1.45794 1.36909 -4
    endloop
  endfacet
  facet normal 0.66134 0.750086 -0
    outer loop
      vertex 1.36909 1.45794 -4
      vertex 1.27485 1.54103 4
      vertex 1.36909 1.45794 4
    endloop
  endfacet
  facet normal 0.66134 0.750086 0
    outer loop
      vertex 1.27485 1.54103 4
      vertex 1.36909 1.45794 -4
      vertex 1.27485 1.54103 -4
    endloop
  endfacet
  facet normal 0.61286 0.790191 -0
    outer loop
      vertex 1.27485 1.54103 -4
      vertex 1.17557 1.61803 4
      vertex 1.27485 1.54103 4
    endloop
  endfacet
  facet normal 0.61286 0.790191 0
    outer loop
      vertex 1.17557 1.61803 4
      vertex 1.27485 1.54103 -4
      vertex 1.17557 1.61803 -4
    endloop
  endfacet
  facet normal 0.562116 0.827058 -0
    outer loop
      vertex 1.17557 1.61803 -4
      vertex 1.07165 1.68866 4
      vertex 1.17557 1.61803 4
    endloop
  endfacet
  facet normal 0.562116 0.827058 0
    outer loop
      vertex 1.07165 1.68866 4
      vertex 1.17557 1.61803 -4
      vertex 1.07165 1.68866 -4
    endloop
  endfacet
  facet normal 0.509008 0.860762 -0
    outer loop
      vertex 1.07165 1.68866 -4
      vertex 0.963507 1.75261 4
      vertex 1.07165 1.68866 4
    endloop
  endfacet
  facet normal 0.509008 0.860762 0
    outer loop
      vertex 0.963507 1.75261 4
      vertex 1.07165 1.68866 -4
      vertex 0.963507 1.75261 -4
    endloop
  endfacet
  facet normal 0.453988 0.891008 -0
    outer loop
      vertex 0.963507 1.75261 -4
      vertex 0.851559 1.80965 4
      vertex 0.963507 1.75261 4
    endloop
  endfacet
  facet normal 0.453988 0.891008 0
    outer loop
      vertex 0.851559 1.80965 4
      vertex 0.963507 1.75261 -4
      vertex 0.851559 1.80965 -4
    endloop
  endfacet
  facet normal 0.397154 0.917752 -0
    outer loop
      vertex 0.851559 1.80965 -4
      vertex 0.736249 1.85955 4
      vertex 0.851559 1.80965 4
    endloop
  endfacet
  facet normal 0.397154 0.917752 0
    outer loop
      vertex 0.736249 1.85955 4
      vertex 0.851559 1.80965 -4
      vertex 0.736249 1.85955 -4
    endloop
  endfacet
  facet normal 0.338738 0.940881 -0
    outer loop
      vertex 0.736249 1.85955 -4
      vertex 0.618034 1.90211 4
      vertex 0.736249 1.85955 4
    endloop
  endfacet
  facet normal 0.338738 0.940881 0
    outer loop
      vertex 0.618034 1.90211 4
      vertex 0.736249 1.85955 -4
      vertex 0.618034 1.90211 -4
    endloop
  endfacet
  facet normal 0.279041 0.960279 -0
    outer loop
      vertex 0.618034 1.90211 -4
      vertex 0.49738 1.93717 4
      vertex 0.618034 1.90211 4
    endloop
  endfacet
  facet normal 0.279041 0.960279 0
    outer loop
      vertex 0.49738 1.93717 4
      vertex 0.618034 1.90211 -4
      vertex 0.49738 1.93717 -4
    endloop
  endfacet
  facet normal 0.218081 0.975931 -0
    outer loop
      vertex 0.49738 1.93717 -4
      vertex 0.374763 1.96457 4
      vertex 0.49738 1.93717 4
    endloop
  endfacet
  facet normal 0.218081 0.975931 0
    outer loop
      vertex 0.374763 1.96457 4
      vertex 0.49738 1.93717 -4
      vertex 0.374763 1.96457 -4
    endloop
  endfacet
  facet normal 0.156473 0.987682 -0
    outer loop
      vertex 0.374763 1.96457 -4
      vertex 0.250666 1.98423 4
      vertex 0.374763 1.96457 4
    endloop
  endfacet
  facet normal 0.156473 0.987682 0
    outer loop
      vertex 0.250666 1.98423 4
      vertex 0.374763 1.96457 -4
      vertex 0.250666 1.98423 -4
    endloop
  endfacet
  facet normal 0.0940767 0.995565 -0
    outer loop
      vertex 0.250666 1.98423 -4
      vertex 0.125581 1.99605 4
      vertex 0.250666 1.98423 4
    endloop
  endfacet
  facet normal 0.0940767 0.995565 0
    outer loop
      vertex 0.125581 1.99605 4
      vertex 0.250666 1.98423 -4
      vertex 0.125581 1.99605 -4
    endloop
  endfacet
  facet normal 0.0314383 0.999506 -0
    outer loop
      vertex 0.125581 1.99605 -4
      vertex 0 2 4
      vertex 0.125581 1.99605 4
    endloop
  endfacet
  facet normal 0.0314383 0.999506 0
    outer loop
      vertex 0 2 4
      vertex 0.125581 1.99605 -4
      vertex 0 2 -4
    endloop
  endfacet
  facet normal -0.0314383 0.999506 0
    outer loop
      vertex 0 2 -4
      vertex -0.125581 1.99605 4
      vertex 0 2 4
    endloop
  endfacet
  facet normal -0.0314383 0.999506 0
    outer loop
      vertex -0.125581 1.99605 4
      vertex 0 2 -4
      vertex -0.125581 1.99605 -4
    endloop
  endfacet
  facet normal -0.0940767 0.995565 0
    outer loop
      vertex -0.125581 1.99605 -4
      vertex -0.250666 1.98423 4
      vertex -0.125581 1.99605 4
    endloop
  endfacet
  facet normal -0.0940767 0.995565 0
    outer loop
      vertex -0.250666 1.98423 4
      vertex -0.125581 1.99605 -4
      vertex -0.250666 1.98423 -4
    endloop
  endfacet
  facet normal -0.156473 0.987682 0
    outer loop
      vertex -0.250666 1.98423 -4
      vertex -0.374763 1.96457 4
      vertex -0.250666 1.98423 4
    endloop
  endfacet
  facet normal -0.156473 0.987682 0
    outer loop
      vertex -0.374763 1.96457 4
      vertex -0.250666 1.98423 -4
      vertex -0.374763 1.96457 -4
    endloop
  endfacet
  facet normal -0.218081 0.975931 0
    outer loop
      vertex -0.374763 1.96457 -4
      vertex -0.49738 1.93717 4
      vertex -0.374763 1.96457 4
    endloop
  endfacet
  facet normal -0.218081 0.975931 0
    outer loop
      vertex -0.49738 1.93717 4
      vertex -0.374763 1.96457 -4
      vertex -0.49738 1.93717 -4
    endloop
  endfacet
  facet normal -0.279041 0.960279 0
    outer loop
      vertex -0.49738 1.93717 -4
      vertex -0.618034 1.90211 4
      vertex -0.49738 1.93717 4
    endloop
  endfacet
  facet normal -0.279041 0.960279 0
    outer loop
      vertex -0.618034 1.90211 4
      vertex -0.49738 1.93717 -4
      vertex -0.618034 1.90211 -4
    endloop
  endfacet
  facet normal -0.338738 0.940881 0
    outer loop
      vertex -0.618034 1.90211 -4
      vertex -0.736249 1.85955 4
      vertex -0.618034 1.90211 4
    endloop
  endfacet
  facet normal -0.338738 0.940881 0
    outer loop
      vertex -0.736249 1.85955 4
      vertex -0.618034 1.90211 -4
      vertex -0.736249 1.85955 -4
    endloop
  endfacet
  facet normal -0.397154 0.917752 0
    outer loop
      vertex -0.736249 1.85955 -4
      vertex -0.851559 1.80965 4
      vertex -0.736249 1.85955 4
    endloop
  endfacet
  facet normal -0.397154 0.917752 0
    outer loop
      vertex -0.851559 1.80965 4
      vertex -0.736249 1.85955 -4
      vertex -0.851559 1.80965 -4
    endloop
  endfacet
  facet normal -0.453988 0.891008 0
    outer loop
      vertex -0.851559 1.80965 -4
      vertex -0.963507 1.75261 4
      vertex -0.851559 1.80965 4
    endloop
  endfacet
  facet normal -0.453988 0.891008 0
    outer loop
      vertex -0.963507 1.75261 4
      vertex -0.851559 1.80965 -4
      vertex -0.963507 1.75261 -4
    endloop
  endfacet
  facet normal -0.509008 0.860762 0
    outer loop
      vertex -0.963507 1.75261 -4
      vertex -1.07165 1.68866 4
      vertex -0.963507 1.75261 4
    endloop
  endfacet
  facet normal -0.509008 0.860762 0
    outer loop
      vertex -1.07165 1.68866 4
      vertex -0.963507 1.75261 -4
      vertex -1.07165 1.68866 -4
    endloop
  endfacet
  facet normal -0.562116 0.827058 0
    outer loop
      vertex -1.07165 1.68866 -4
      vertex -1.17557 1.61803 4
      vertex -1.07165 1.68866 4
    endloop
  endfacet
  facet normal -0.562116 0.827058 0
    outer loop
      vertex -1.17557 1.61803 4
      vertex -1.07165 1.68866 -4
      vertex -1.17557 1.61803 -4
    endloop
  endfacet
  facet normal -0.61286 0.790191 0
    outer loop
      vertex -1.17557 1.61803 -4
      vertex -1.27485 1.54103 4
      vertex -1.17557 1.61803 4
    endloop
  endfacet
  facet normal -0.61286 0.790191 0
    outer loop
      vertex -1.27485 1.54103 4
      vertex -1.17557 1.61803 -4
      vertex -1.27485 1.54103 -4
    endloop
  endfacet
  facet normal -0.66134 0.750086 0
    outer loop
      vertex -1.27485 1.54103 -4
      vertex -1.36909 1.45794 4
      vertex -1.27485 1.54103 4
    endloop
  endfacet
  facet normal -0.66134 0.750086 0
    outer loop
      vertex -1.36909 1.45794 4
      vertex -1.27485 1.54103 -4
      vertex -1.36909 1.45794 -4
    endloop
  endfacet
  facet normal -0.707107 0.707107 0
    outer loop
      vertex -1.45794 1.36909 -4
      vertex -1.36909 1.45794 4
      vertex -1.36909 1.45794 -4
    endloop
  endfacet
  facet normal -0.707107 0.707107 0
    outer loop
      vertex -1.36909 1.45794 4
      vertex -1.45794 1.36909 -4
      vertex -1.45794 1.36909 4
    endloop
  endfacet
  facet normal -0.750086 0.66134 0
    outer loop
      vertex -1.54103 1.27485 -4
      vertex -1.45794 1.36909 4
      vertex -1.45794 1.36909 -4
    endloop
  endfacet
  facet normal -0.750086 0.66134 0
    outer loop
      vertex -1.45794 1.36909 4
      vertex -1.54103 1.27485 -4
      vertex -1.54103 1.27485 4
    endloop
  endfacet
  facet normal -0.790191 0.61286 0
    outer loop
      vertex -1.61803 1.17557 -4
      vertex -1.54103 1.27485 4
      vertex -1.54103 1.27485 -4
    endloop
  endfacet
  facet normal -0.790191 0.61286 0
    outer loop
      vertex -1.54103 1.27485 4
      vertex -1.61803 1.17557 -4
      vertex -1.61803 1.17557 4
    endloop
  endfacet
  facet normal -0.827058 0.562116 0
    outer loop
      vertex -1.68866 1.07165 -4
      vertex -1.61803 1.17557 4
      vertex -1.61803 1.17557 -4
    endloop
  endfacet
  facet normal -0.827058 0.562116 0
    outer loop
      vertex -1.61803 1.17557 4
      vertex -1.68866 1.07165 -4
      vertex -1.68866 1.07165 4
    endloop
  endfacet
  facet normal -0.860762 0.509008 0
    outer loop
      vertex -1.75261 0.963507 -4
      vertex -1.68866 1.07165 4
      vertex -1.68866 1.07165 -4
    endloop
  endfacet
  facet normal -0.860762 0.509008 0
    outer loop
      vertex -1.68866 1.07165 4
      vertex -1.75261 0.963507 -4
      vertex -1.75261 0.963507 4
    endloop
  endfacet
  facet normal -0.891008 0.453988 0
    outer loop
      vertex -1.80965 0.851559 -4
      vertex -1.75261 0.963507 4
      vertex -1.75261 0.963507 -4
    endloop
  endfacet
  facet normal -0.891008 0.453988 0
    outer loop
      vertex -1.75261 0.963507 4
      vertex -1.80965 0.851559 -4
      vertex -1.80965 0.851559 4
    endloop
  endfacet
  facet normal -0.917752 0.397154 0
    outer loop
      vertex -1.85955 0.736249 -4
      vertex -1.80965 0.851559 4
      vertex -1.80965 0.851559 -4
    endloop
  endfacet
  facet normal -0.917752 0.397154 0
    outer loop
      vertex -1.80965 0.851559 4
      vertex -1.85955 0.736249 -4
      vertex -1.85955 0.736249 4
    endloop
  endfacet
  facet normal -0.940881 0.338738 0
    outer loop
      vertex -1.90211 0.618034 -4
      vertex -1.85955 0.736249 4
      vertex -1.85955 0.736249 -4
    endloop
  endfacet
  facet normal -0.940881 0.338738 0
    outer loop
      vertex -1.85955 0.736249 4
      vertex -1.90211 0.618034 -4
      vertex -1.90211 0.618034 4
    endloop
  endfacet
  facet normal -0.960279 0.279041 0
    outer loop
      vertex -1.93717 0.49738 -4
      vertex -1.90211 0.618034 4
      vertex -1.90211 0.618034 -4
    endloop
  endfacet
  facet normal -0.960279 0.279041 0
    outer loop
      vertex -1.90211 0.618034 4
      vertex -1.93717 0.49738 -4
      vertex -1.93717 0.49738 4
    endloop
  endfacet
  facet normal -0.975931 0.218081 0
    outer loop
      vertex -1.96457 0.374763 -4
      vertex -1.93717 0.49738 4
      vertex -1.93717 0.49738 -4
    endloop
  endfacet
  facet normal -0.975931 0.218081 0
    outer loop
      vertex -1.93717 0.49738 4
      vertex -1.96457 0.374763 -4
      vertex -1.96457 0.374763 4
    endloop
  endfacet
  facet normal -0.987682 0.156473 0
    outer loop
      vertex -1.98423 0.250666 -4
      vertex -1.96457 0.374763 4
      vertex -1.96457 0.374763 -4
    endloop
  endfacet
  facet normal -0.987682 0.156473 0
    outer loop
      vertex -1.96457 0.374763 4
      vertex -1.98423 0.250666 -4
      vertex -1.98423 0.250666 4
    endloop
  endfacet
  facet normal -0.995565 0.0940767 0
    outer loop
      vertex -1.99605 0.125581 -4
      vertex -1.98423 0.250666 4
      vertex -1.98423 0.250666 -4
    endloop
  endfacet
  facet normal -0.995565 0.0940767 0
    outer loop
      vertex -1.98423 0.250666 4
      vertex -1.99605 0.125581 -4
      vertex -1.99605 0.125581 4
    endloop
  endfacet
  facet normal -0.999506 0.0314383 0
    outer loop
      vertex -2 0 -4
      vertex -1.99605 0.125581 4
      vertex -1.99605 0.125581 -4
    endloop
  endfacet
  facet normal -0.999506 0.0314383 0
    outer loop
      vertex -1.99605 0.125581 4
      vertex -2 0 -4
      vertex -2 0 4
    endloop
  endfacet
  facet normal -0.999506 -0.0314383 0
    outer loop
      vertex -1.99605 -0.125581 -4
      vertex -2 0 4
      vertex -2 0 -4
    endloop
  endfacet
  facet normal -0.999506 -0.0314383 0
    outer loop
      vertex -2 0 4
      vertex -1.99605 -0.125581 -4
      vertex -1.99605 -0.125581 4
    endloop
  endfacet
  facet normal -0.995565 -0.0940767 0
    outer loop
      vertex -1.98423 -0.250666 -4
      vertex -1.99605 -0.125581 4
      vertex -1.99605 -0.125581 -4
    endloop
  endfacet
  facet normal -0.995565 -0.0940767 0
    outer loop
      vertex -1.99605 -0.125581 4
      vertex -1.98423 -0.250666 -4
      vertex -1.98423 -0.250666 4
    endloop
  endfacet
  facet normal -0.987682 -0.156473 0
    outer loop
      vertex -1.96457 -0.374763 -4
      vertex -1.98423 -0.250666 4
      vertex -1.98423 -0.250666 -4
    endloop
  endfacet
  facet normal -0.987682 -0.156473 0
    outer loop
      vertex -1.98423 -0.250666 4
      vertex -1.96457 -0.374763 -4
      vertex -1.96457 -0.374763 4
    endloop
  endfacet
  facet normal -0.975931 -0.218081 0
    outer loop
      vertex -1.93717 -0.49738 -4
      vertex -1.96457 -0.374763 4
      vertex -1.96457 -0.374763 -4
    endloop
  endfacet
  facet normal -0.975931 -0.218081 0
    outer loop
      vertex -1.96457 -0.374763 4
      vertex -1.93717 -0.49738 -4
      vertex -1.93717 -0.49738 4
    endloop
  endfacet
  facet normal -0.960279 -0.279041 0
    outer loop
      vertex -1.90211 -0.618034 -4
      vertex -1.93717 -0.49738 4
      vertex -1.93717 -0.49738 -4
    endloop
  endfacet
  facet normal -0.960279 -0.279041 0
    outer loop
      vertex -1.93717 -0.49738 4
      vertex -1.90211 -0.618034 -4
      vertex -1.90211 -0.618034 4
    endloop
  endfacet
  facet normal -0.940881 -0.338738 0
    outer loop
      vertex -1.85955 -0.736249 -4
      vertex -1.90211 -0.618034 4
      vertex -1.90211 -0.618034 -4
    endloop
  endfacet
  facet normal -0.940881 -0.338738 0
    outer loop
      vertex -1.90211 -0.618034 4
      vertex -1.85955 -0.736249 -4
      vertex -1.85955 -0.736249 4
    endloop
  endfacet
  facet normal -0.917752 -0.397154 0
    outer loop
      vertex -1.80965 -0.851559 -4
      vertex -1.85955 -0.736249 4
      vertex -1.85955 -0.736249 -4
    endloop
  endfacet
  facet normal -0.917752 -0.397154 0
    outer loop
      vertex -1.85955 -0.736249 4
      vertex -1.80965 -0.851559 -4
      vertex -1.80965 -0.851559 4
    endloop
  endfacet
  facet normal -0.891008 -0.453988 0
    outer loop
      vertex -1.75261 -0.963507 -4
      vertex -1.80965 -0.851559 4
      vertex -1.80965 -0.851559 -4
    endloop
  endfacet
  facet normal -0.891008 -0.453988 0
    outer loop
      vertex -1.80965 -0.851559 4
      vertex -1.75261 -0.963507 -4
      vertex -1.75261 -0.963507 4
    endloop
  endfacet
  facet normal -0.860762 -0.509008 0
    outer loop
      vertex -1.68866 -1.07165 -4
      vertex -1.75261 -0.963507 4
      vertex -1.75261 -0.963507 -4
    endloop
  endfacet
  facet normal -0.860762 -0.509008 0
    outer loop
      vertex -1.75261 -0.963507 4
      vertex -1.68866 -1.07165 -4
      vertex -1.68866 -1.07165 4
    endloop
  endfacet
  facet normal -0.827058 -0.562116 0
    outer loop
      vertex -1.61803 -1.17557 -4
      vertex -1.68866 -1.07165 4
      vertex -1.68866 -1.07165 -4
    endloop
  endfacet
  facet normal -0.827058 -0.562116 0
    outer loop
      vertex -1.68866 -1.07165 4
      vertex -1.61803 -1.17557 -4
      vertex -1.61803 -1.17557 4
    endloop
  endfacet
  facet normal -0.790191 -0.61286 0
    outer loop
      vertex -1.54103 -1.27485 -4
      vertex -1.61803 -1.17557 4
      vertex -1.61803 -1.17557 -4
    endloop
  endfacet
  facet normal -0.790191 -0.61286 0
    outer loop
      vertex -1.61803 -1.17557 4
      vertex -1.54103 -1.27485 -4
      vertex -1.54103 -1.27485 4
    endloop
  endfacet
  facet normal -0.750086 -0.66134 0
    outer loop
      vertex -1.45794 -1.36909 -4
      vertex -1.54103 -1.27485 4
      vertex -1.54103 -1.27485 -4
    endloop
  endfacet
  facet normal -0.750086 -0.66134 0
    outer loop
      vertex -1.54103 -1.27485 4
      vertex -1.45794 -1.36909 -4
      vertex -1.45794 -1.36909 4
    endloop
  endfacet
  facet normal -0.707107 -0.707107 0
    outer loop
      vertex -1.36909 -1.45794 -4
      vertex -1.45794 -1.36909 4
      vertex -1.45794 -1.36909 -4
    endloop
  endfacet
  facet normal -0.707107 -0.707107 0
    outer loop
      vertex -1.45794 -1.36909 4
      vertex -1.36909 -1.45794 -4
      vertex -1.36909 -1.45794 4
    endloop
  endfacet
  facet normal -0.66134 -0.750086 0
    outer loop
      vertex -1.36909 -1.45794 -4
      vertex -1.27485 -1.54103 4
      vertex -1.36909 -1.45794 4
    endloop
  endfacet
  facet normal -0.66134 -0.750086 -0
    outer loop
      vertex -1.27485 -1.54103 4
      vertex -1.36909 -1.45794 -4
      vertex -1.27485 -1.54103 -4
    endloop
  endfacet
  facet normal -0.61286 -0.790191 0
    outer loop
      vertex -1.27485 -1.54103 -4
      vertex -1.17557 -1.61803 4
      vertex -1.27485 -1.54103 4
    endloop
  endfacet
  facet normal -0.61286 -0.790191 -0
    outer loop
      vertex -1.17557 -1.61803 4
      vertex -1.27485 -1.54103 -4
      vertex -1.17557 -1.61803 -4
    endloop
  endfacet
  facet normal -0.562116 -0.827058 0
    outer loop
      vertex -1.17557 -1.61803 -4
      vertex -1.07165 -1.68866 4
      vertex -1.17557 -1.61803 4
    endloop
  endfacet
  facet normal -0.562116 -0.827058 -0
    outer loop
      vertex -1.07165 -1.68866 4
      vertex -1.17557 -1.61803 -4
      vertex -1.07165 -1.68866 -4
    endloop
  endfacet
  facet normal -0.509008 -0.860762 0
    outer loop
      vertex -1.07165 -1.68866 -4
      vertex -0.963507 -1.75261 4
      vertex -1.07165 -1.68866 4
    endloop
  endfacet
  facet normal -0.509008 -0.860762 -0
    outer loop
      vertex -0.963507 -1.75261 4
      vertex -1.07165 -1.68866 -4
      vertex -0.963507 -1.75261 -4
    endloop
  endfacet
  facet normal -0.453988 -0.891008 0
    outer loop
      vertex -0.963507 -1.75261 -4
      vertex -0.851559 -1.80965 4
      vertex -0.963507 -1.75261 4
    endloop
  endfacet
  facet normal -0.453988 -0.891008 -0
    outer loop
      vertex -0.851559 -1.80965 4
      vertex -0.963507 -1.75261 -4
      vertex -0.851559 -1.80965 -4
    endloop
  endfacet
  facet normal -0.397154 -0.917752 0
    outer loop
      vertex -0.851559 -1.80965 -4
      vertex -0.736249 -1.85955 4
      vertex -0.851559 -1.80965 4
    endloop
  endfacet
  facet normal -0.397154 -0.917752 -0
    outer loop
      vertex -0.736249 -1.85955 4
      vertex -0.851559 -1.80965 -4
      vertex -0.736249 -1.85955 -4
    endloop
  endfacet
  facet normal -0.338738 -0.940881 0
    outer loop
      vertex -0.736249 -1.85955 -4
      vertex -0.618034 -1.90211 4
      vertex -0.736249 -1.85955 4
    endloop
  endfacet
  facet normal -0.338738 -0.940881 -0
    outer loop
      vertex -0.618034 -1.90211 4
      vertex -0.736249 -1.85955 -4
      vertex -0.618034 -1.90211 -4
    endloop
  endfacet
  facet normal -0.279041 -0.960279 0
    outer loop
      vertex -0.618034 -1.90211 -4
      vertex -0.49738 -1.93717 4
      vertex -0.618034 -1.90211 4
    endloop
  endfacet
  facet normal -0.279041 -0.960279 -0
    outer loop
      vertex -0.49738 -1.93717 4
      vertex -0.618034 -1.90211 -4
      vertex -0.49738 -1.93717 -4
    endloop
  endfacet
  facet normal -0.218081 -0.975931 0
    outer loop
      vertex -0.49738 -1.93717 -4
      vertex -0.374763 -1.96457 4
      vertex -0.49738 -1.93717 4
    endloop
  endfacet
  facet normal -0.218081 -0.975931 -0
    outer loop
      vertex -0.374763 -1.96457 4
      vertex -0.49738 -1.93717 -4
      vertex -0.374763 -1.96457 -4
    endloop
  endfacet
  facet normal -0.156473 -0.987682 0
    outer loop
      vertex -0.374763 -1.96457 -4
      vertex -0.250666 -1.98423 4
      vertex -0.374763 -1.96457 4
    endloop
  endfacet
  facet normal -0.156473 -0.987682 -0
    outer loop
      vertex -0.250666 -1.98423 4
      vertex -0.374763 -1.96457 -4
      vertex -0.250666 -1.98423 -4
    endloop
  endfacet
  facet normal -0.0940767 -0.995565 0
    outer loop
      vertex -0.250666 -1.98423 -4
      vertex -0.125581 -1.99605 4
      vertex -0.250666 -1.98423 4
    endloop
  endfacet
  facet normal -0.0940767 -0.995565 -0
    outer loop
      vertex -0.125581 -1.99605 4
      vertex -0.250666 -1.98423 -4
      vertex -0.125581 -1.99605 -4
    endloop
  endfacet
  facet normal -0.0314383 -0.999506 0
    outer loop
      vertex -0.125581 -1.99605 -4
      vertex 0 -2 4
      vertex -0.125581 -1.99605 4
    endloop
  endfacet
  facet normal -0.0314383 -0.999506 -0
    outer loop
      vertex 0 -2 4
      vertex -0.125581 -1.99605 -4
      vertex 0 -2 -4
    endloop
  endfacet
  facet normal 0.0314383 -0.999506 0
    outer loop
      vertex 0 -2 -4
      vertex 0.125581 -1.99605 4
      vertex 0 -2 4
    endloop
  endfacet
  facet normal 0.0314383 -0.999506 0
    outer loop
      vertex 0.125581 -1.99605 4
      vertex 0 -2 -4
      vertex 0.125581 -1.99605 -4
    endloop
  endfacet
  facet normal 0.0940767 -0.995565 0
    outer loop
      vertex 0.125581 -1.99605 -4
      vertex 0.250666 -1.98423 4
      vertex 0.125581 -1.99605 4
    endloop
  endfacet
  facet normal 0.0940767 -0.995565 0
    outer loop
      vertex 0.250666 -1.98423 4
      vertex 0.125581 -1.99605 -4
      vertex 0.250666 -1.98423 -4
    endloop
  endfacet
  facet normal 0.156473 -0.987682 0
    outer loop
      vertex 0.250666 -1.98423 -4
      vertex 0.374763 -1.96457 4
      vertex 0.250666 -1.98423 4
    endloop
  endfacet
  facet normal 0.156473 -0.987682 0
    outer loop
      vertex 0.374763 -1.96457 4
      vertex 0.250666 -1.98423 -4
      vertex 0.374763 -1.96457 -4
    endloop
  endfacet
  facet normal 0.218081 -0.975931 0
    outer loop
      vertex 0.374763 -1.96457 -4
      vertex 0.49738 -1.93717 4
      vertex 0.374763 -1.96457 4
    endloop
  endfacet
  facet normal 0.218081 -0.975931 0
    outer loop
      vertex 0.49738 -1.93717 4
      vertex 0.374763 -1.96457 -4
      vertex 0.49738 -1.93717 -4
    endloop
  endfacet
  facet normal 0.279041 -0.960279 0
    outer loop
      vertex 0.49738 -1.93717 -4
      vertex 0.618034 -1.90211 4
      vertex 0.49738 -1.93717 4
    endloop
  endfacet
  facet normal 0.279041 -0.960279 0
    outer loop
      vertex 0.618034 -1.90211 4
      vertex 0.49738 -1.93717 -4
      vertex 0.618034 -1.90211 -4
    endloop
  endfacet
  facet normal 0.338738 -0.940881 0
    outer loop
      vertex 0.618034 -1.90211 -4
      vertex 0.736249 -1.85955 4
      vertex 0.618034 -1.90211 4
    endloop
  endfacet
  facet normal 0.338738 -0.940881 0
    outer loop
      vertex 0.736249 -1.85955 4
      vertex 0.618034 -1.90211 -4
      vertex 0.736249 -1.85955 -4
    endloop
  endfacet
  facet normal 0.397154 -0.917752 0
    outer loop
      vertex 0.736249 -1.85955 -4
      vertex 0.851559 -1.80965 4
      vertex 0.736249 -1.85955 4
    endloop
  endfacet
  facet normal 0.397154 -0.917752 0
    outer loop
      vertex 0.851559 -1.80965 4
      vertex 0.736249 -1.85955 -4
      vertex 0.851559 -1.80965 -4
    endloop
  endfacet
  facet normal 0.453988 -0.891008 0
    outer loop
      vertex 0.851559 -1.80965 -4
      vertex 0.963507 -1.75261 4
      vertex 0.851559 -1.80965 4
    endloop
  endfacet
  facet normal 0.453988 -0.891008 0
    outer loop
      vertex 0.963507 -1.75261 4
      vertex 0.851559 -1.80965 -4
      vertex 0.963507 -1.75261 -4
    endloop
  endfacet
  facet normal 0.509008 -0.860762 0
    outer loop
      vertex 0.963507 -1.75261 -4
      vertex 1.07165 -1.68866 4
      vertex 0.963507 -1.75261 4
    endloop
  endfacet
  facet normal 0.509008 -0.860762 0
    outer loop
      vertex 1.07165 -1.68866 4
      vertex 0.963507 -1.75261 -4
      vertex 1.07165 -1.68866 -4
    endloop
  endfacet
  facet normal 0.562116 -0.827058 0
    outer loop
      vertex 1.07165 -1.68866 -4
      vertex 1.17557 -1.61803 4
      vertex 1.07165 -1.68866 4
    endloop
  endfacet
  facet normal 0.562116 -0.827058 0
    outer loop
      vertex 1.17557 -1.61803 4
      vertex 1.07165 -1.68866 -4
      vertex 1.17557 -1.61803 -4
    endloop
  endfacet
  facet normal 0.61286 -0.790191 0
    outer loop
      vertex 1.17557 -1.61803 -4
      vertex 1.27485 -1.54103 4
      vertex 1.17557 -1.61803 4
    endloop
  endfacet
  facet normal 0.61286 -0.790191 0
    outer loop
      vertex 1.27485 -1.54103 4
      vertex 1.17557 -1.61803 -4
      vertex 1.27485 -1.54103 -4
    endloop
  endfacet
  facet normal 0.66134 -0.750086 0
    outer loop
      vertex 1.27485 -1.54103 -4
      vertex 1.36909 -1.45794 4
      vertex 1.27485 -1.54103 4
    endloop
  endfacet
  facet normal 0.66134 -0.750086 0
    outer loop
      vertex 1.36909 -1.45794 4
      vertex 1.27485 -1.54103 -4
      vertex 1.36909 -1.45794 -4
    endloop
  endfacet
  facet normal 0.707107 -0.707107 0
    outer loop
      vertex 1.36909 -1.45794 4
      vertex 1.45794 -1.36909 -4
      vertex 1.45794 -1.36909 4
    endloop
  endfacet
  facet normal 0.707107 -0.707107 0
    outer loop
      vertex 1.45794 -1.36909 -4
      vertex 1.36909 -1.45794 4
      vertex 1.36909 -1.45794 -4
    endloop
  endfacet
  facet normal 0.750086 -0.66134 0
    outer loop
      vertex 1.45794 -1.36909 4
      vertex 1.54103 -1.27485 -4
      vertex 1.54103 -1.27485 4
    endloop
  endfacet
  facet normal 0.750086 -0.66134 0
    outer loop
      vertex 1.54103 -1.27485 -4
      vertex 1.45794 -1.36909 4
      vertex 1.45794 -1.36909 -4
    endloop
  endfacet
  facet normal 0.790191 -0.61286 0
    outer loop
      vertex 1.54103 -1.27485 4
      vertex 1.61803 -1.17557 -4
      vertex 1.61803 -1.17557 4
    endloop
  endfacet
  facet normal 0.790191 -0.61286 0
    outer loop
      vertex 1.61803 -1.17557 -4
      vertex 1.54103 -1.27485 4
      vertex 1.54103 -1.27485 -4
    endloop
  endfacet
  facet normal 0.827058 -0.562116 0
    outer loop
      vertex 1.61803 -1.17557 4
      vertex 1.68866 -1.07165 -4
      vertex 1.68866 -1.07165 4
    endloop
  endfacet
  facet normal 0.827058 -0.562116 0
    outer loop
      vertex 1.68866 -1.07165 -4
      vertex 1.61803 -1.17557 4
      vertex 1.61803 -1.17557 -4
    endloop
  endfacet
  facet normal 0.860762 -0.509008 0
    outer loop
      vertex 1.68866 -1.07165 4
      vertex 1.75261 -0.963507 -4
      vertex 1.75261 -0.963507 4
    endloop
  endfacet
  facet normal 0.860762 -0.509008 0
    outer loop
      vertex 1.75261 -0.963507 -4
      vertex 1.68866 -1.07165 4
      vertex 1.68866 -1.07165 -4
    endloop
  endfacet
  facet normal 0.891008 -0.453988 0
    outer loop
      vertex 1.75261 -0.963507 4
      vertex 1.80965 -0.851559 -4
      vertex 1.80965 -0.851559 4
    endloop
  endfacet
  facet normal 0.891008 -0.453988 0
    outer loop
      vertex 1.80965 -0.851559 -4
      vertex 1.75261 -0.963507 4
      vertex 1.75261 -0.963507 -4
    endloop
  endfacet
  facet normal 0.917752 -0.397154 0
    outer loop
      vertex 1.80965 -0.851559 4
      vertex 1.85955 -0.736249 -4
      vertex 1.85955 -0.736249 4
    endloop
  endfacet
  facet normal 0.917752 -0.397154 0
    outer loop
      vertex 1.85955 -0.736249 -4
      vertex 1.80965 -0.851559 4
      vertex 1.80965 -0.851559 -4
    endloop
  endfacet
  facet normal 0.940881 -0.338738 0
    outer loop
      vertex 1.85955 -0.736249 4
      vertex 1.90211 -0.618034 -4
      vertex 1.90211 -0.618034 4
    endloop
  endfacet
  facet normal 0.940881 -0.338738 0
    outer loop
      vertex 1.90211 -0.618034 -4
      vertex 1.85955 -0.736249 4
      vertex 1.85955 -0.736249 -4
    endloop
  endfacet
  facet normal 0.960279 -0.279041 0
    outer loop
      vertex 1.90211 -0.618034 4
      vertex 1.93717 -0.49738 -4
      vertex 1.93717 -0.49738 4
    endloop
  endfacet
  facet normal 0.960279 -0.279041 0
    outer loop
      vertex 1.93717 -0.49738 -4
      vertex 1.90211 -0.618034 4
      vertex 1.90211 -0.618034 -4
    endloop
  endfacet
  facet normal 0.975931 -0.218081 0
    outer loop
      vertex 1.93717 -0.49738 4
      vertex 1.96457 -0.374763 -4
      vertex 1.96457 -0.374763 4
    endloop
  endfacet
  facet normal 0.975931 -0.218081 0
    outer loop
      vertex 1.96457 -0.374763 -4
      vertex 1.93717 -0.49738 4
      vertex 1.93717 -0.49738 -4
    endloop
  endfacet
  facet normal 0.987682 -0.156473 0
    outer loop
      vertex 1.96457 -0.374763 4
      vertex 1.98423 -0.250666 -4
      vertex 1.98423 -0.250666 4
    endloop
  endfacet
  facet normal 0.987682 -0.156473 0
    outer loop
      vertex 1.98423 -0.250666 -4
      vertex 1.96457 -0.374763 4
      vertex 1.96457 -0.374763 -4
    endloop
  endfacet
  facet normal 0.995565 -0.0940767 0
    outer loop
      vertex 1.98423 -0.250666 4
      vertex 1.99605 -0.125581 -4
      vertex 1.99605 -0.125581 4
    endloop
  endfacet
  facet normal 0.995565 -0.0940767 0
    outer loop
      vertex 1.99605 -0.125581 -4
      vertex 1.98423 -0.250666 4
      vertex 1.98423 -0.250666 -4
    endloop
  endfacet
  facet normal 0.999506 -0.0314383 0
    outer loop
      vertex 1.99605 -0.125581 4
      vertex 2 0 -4
      vertex 2 0 4
    endloop
  endfacet
  facet normal 0.999506 -0.0314383 0
    outer loop
      vertex 2 0 -4
      vertex 1.99605 -0.125581 4
      vertex 1.99605 -0.125581 -4
    endloop
  endfacet
  facet normal 0 0 -1
    outer loop
      vertex 1.99605 -0.125581 -4
      vertex 1.99605 0.125581 -4
      vertex 2 0 -4
    endloop
  endfacet
  facet normal 0 0 -1
    outer loop
      vertex 1.98423 -0.250666 -4
      vertex 1.99605 0.125581 -4
      vertex 1.99605 -0.125581 -4
    endloop
  endfacet
  facet normal 0 0 -1
    outer loop
      vertex 1.98423 -0.250666 -4
      vertex 1.98423 0.250666 -4
      vertex 1.99605 0.125581 -4
    endloop
  endfacet
  facet normal 0 0 -1
    outer loop
      vertex 1.96457 -0.374763 -4
      vertex 1.98423 0.250666 -4
      vertex 1.98423 -0.250666 -4
    endloop
  endfacet
  facet normal 0 0 -1
    outer loop
      vertex 1.96457 -0.374763 -4
      vertex 1.96457 0.374763 -4
      vertex 1.98423 0.250666 -4
    endloop
  endfacet
  facet normal 0 0 -1
    outer loop
      vertex 1.93717 -0.49738 -4
      vertex 1.96457 0.374763 -4
      vertex 1.96457 -0.374763 -4
    endloop
  endfacet
  facet normal 0 0 -1
    outer loop
      vertex 1.93717 -0.49738 -4
      vertex 1.93717 0.49738 -4
      vertex 1.96457 0.374763 -4
    endloop
  endfacet
  facet normal 0 0 -1
    outer loop
      vertex 1.90211 -0.618034 -4
      vertex 1.93717 0.49738 -4
      vertex 1.93717 -0.49738 -4
    endloop
  endfacet
  facet normal 0 0 -1
    outer loop
      vertex 1.90211 -0.618034 -4
      vertex 1.90211 0.618034 -4
      vertex 1.93717 0.49738 -4
    endloop
  endfacet
  facet normal 0 0 -1
    outer loop
      vertex 1.85955 -0.736249 -4
      vertex 1.90211 0.618034 -4
      vertex 1.90211 -0.618034 -4
    endloop
  endfacet
  facet normal 0 0 -1
    outer loop
      vertex 1.85955 -0.736249 -4
      vertex 1.85955 0.736249 -4
      vertex 1.90211 0.618034 -4
    endloop
  endfacet
  facet normal 0 0 -1
    outer loop
      vertex 1.80965 -0.851559 -4
      vertex 1.85955 0.736249 -4
      vertex 1.85955 -0.736249 -4
    endloop
  endfacet
  facet normal 0 0 -1
    outer loop
      vertex 1.80965 -0.851559 -4
      vertex 1.80965 0.851559 -4
      vertex 1.85955 0.736249 -4
    endloop
  endfacet
  facet normal 0 0 -1
    outer loop
      vertex 1.75261 -0.963507 -4
      vertex 1.80965 0.851559 -4
      vertex 1.80965 -0.851559 -4
    endloop
  endfacet
  facet normal 0 0 -1
    outer loop
      vertex 1.75261 -0.963507 -4
      vertex 1.75261 0.963507 -4
      vertex 1.80965 0.851559 -4
    endloop
  endfacet
  facet normal 0 0 -1
    outer loop
      vertex 1.68866 -1.07165 -4
      vertex 1.75261 0.963507 -4
      vertex 1.75261 -0.963507 -4
    endloop
  endfacet
  facet normal 0 0 -1
    outer loop
      vertex 1.68866 -1.07165 -4
      vertex 1.68866 1.07165 -4
      vertex 1.75261 0.963507 -4
    endloop
  endfacet
  facet normal 0 0 -1
    outer loop
      vertex 1.61803 -1.17557 -4
      vertex 1.68866 1.07165 -4
      vertex 1.68866 -1.07165 -4
    endloop
  endfacet
  facet normal 0 0 -1
    outer loop
      vertex 1.61803 -1.17557 -4
      vertex 1.61803 1.17557 -4
      vertex 1.68866 1.07165 -4
    endloop
  endfacet
  facet normal 0 0 -1
    outer loop
      vertex 1.54103 -1.27485 -4
      vertex 1.61803 1.17557 -4
      vertex 1.61803 -1.17557 -4
    endloop
  endfacet
  facet normal 0 0 -1
    outer loop
      vertex 1.54103 -1.27485 -4
      vertex 1.54103 1.27485 -4
      vertex 1.61803 1.17557 -4
    endloop
  endfacet
  facet normal 0 0 -1
    outer loop
      vertex 1.45794 -1.36909 -4
      vertex 1.54103 1.27485 -4
      vertex 1.54103 -1.27485 -4
    endloop
  endfacet
  facet normal 0 0 -1
    outer loop
      vertex 1.45794 -1.36909 -4
      vertex 1.45794 1.36909 -4
      vertex 1.54103 1.27485 -4
    endloop
  endfacet
  facet normal 0 0 -1
    outer loop
      vertex 1.36909 -1.45794 -4
      vertex 1.45794 1.36909 -4
      vertex 1.45794 -1.36909 -4
    endloop
  endfacet
  facet normal 0 0 -1
    outer loop
      vertex 1.36909 -1.45794 -4
      vertex 1.36909 1.45794 -4
      vertex 1.45794 1.36909 -4
    endloop
  endfacet
  facet normal 0 0 -1
    outer loop
      vertex 1.27485 -1.54103 -4
      vertex 1.36909 1.45794 -4
      vertex 1.36909 -1.45794 -4
    endloop
  endfacet
  facet normal 0 0 -1
    outer loop
      vertex 1.27485 -1.54103 -4
      vertex 1.27485 1.54103 -4
      vertex 1.36909 1.45794 -4
    endloop
  endfacet
  facet normal 0 0 -1
    outer loop
      vertex 1.17557 -1.61803 -4
      vertex 1.27485 1.54103 -4
      vertex 1.27485 -1.54103 -4
    endloop
  endfacet
  facet normal 0 0 -1
    outer loop
      vertex 1.17557 -1.61803 -4
      vertex 1.17557 1.61803 -4
      vertex 1.27485 1.54103 -4
    endloop
  endfacet
  facet normal 0 0 -1
    outer loop
      vertex 1.07165 -1.68866 -4
      vertex 1.17557 1.61803 -4
      vertex 1.17557 -1.61803 -4
    endloop
  endfacet
  facet normal 0 0 -1
    outer loop
      vertex 1.07165 -1.68866 -4
      vertex 1.07165 1.68866 -4
      vertex 1.17557 1.61803 -4
    endloop
  endfacet
  facet normal 0 0 -1
    outer loop
      vertex 0.963507 -1.75261 -4
      vertex 1.07165 1.68866 -4
      vertex 1.07165 -1.68866 -4
    endloop
  endfacet
  facet normal 0 0 -1
    outer loop
      vertex 0.963507 -1.75261 -4
      vertex 0.963507 1.75261 -4
      vertex 1.07165 1.68866 -4
    endloop
  endfacet
  facet normal 0 0 -1
    outer loop
      vertex 0.851559 -1.80965 -4
      vertex 0.963507 1.75261 -4
      vertex 0.963507 -1.75261 -4
    endloop
  endfacet
  facet normal 0 0 -1
    outer loop
      vertex 0.851559 -1.80965 -4
      vertex 0.851559 1.80965 -4
      vertex 0.963507 1.75261 -4
    endloop
  endfacet
  facet normal 0 0 -1
    outer loop
      vertex 0.736249 -1.85955 -4
      vertex 0.851559 1.80965 -4
      vertex 0.851559 -1.80965 -4
    endloop
  endfacet
  facet normal 0 0 -1
    outer loop
      vertex 0.736249 -1.85955 -4
      vertex 0.736249 1.85955 -4
      vertex 0.851559 1.80965 -4
    endloop
  endfacet
  facet normal 0 0 -1
    outer loop
      vertex 0.618034 -1.90211 -4
      vertex 0.736249 1.85955 -4
      vertex 0.736249 -1.85955 -4
    endloop
  endfacet
  facet normal 0 0 -1
    outer loop
      vertex 0.618034 -1.90211 -4
      vertex 0.618034 1.90211 -4
      vertex 0.736249 1.85955 -4
    endloop
  endfacet
  facet normal 0 0 -1
    outer loop
      vertex 0.49738 -1.93717 -4
      vertex 0.618034 1.90211 -4
      vertex 0.618034 -1.90211 -4
    endloop
  endfacet
  facet normal 0 0 -1
    outer loop
      vertex 0.49738 -1.93717 -4
      vertex 0.49738 1.93717 -4
      vertex 0.618034 1.90211 -4
    endloop
  endfacet
  facet normal 0 0 -1
    outer loop
      vertex 0.374763 -1.96457 -4
      vertex 0.49738 1.93717 -4
      vertex 0.49738 -1.93717 -4
    endloop
  endfacet
  facet normal 0 0 -1
    outer loop
      vertex 0.374763 -1.96457 -4
      vertex 0.374763 1.96457 -4
      vertex 0.49738 1.93717 -4
    endloop
  endfacet
  facet normal 0 0 -1
    outer loop
      vertex 0.250666 -1.98423 -4
      vertex 0.374763 1.96457 -4
      vertex 0.374763 -1.96457 -4
    endloop
  endfacet
  facet normal 0 0 -1
    outer loop
      vertex 0.250666 -1.98423 -4
      vertex 0.250666 1.98423 -4
      vertex 0.374763 1.96457 -4
    endloop
  endfacet
  facet normal 0 0 -1
    outer loop
      vertex 0.125581 -1.99605 -4
      vertex 0.250666 1.98423 -4
      vertex 0.250666 -1.98423 -4
    endloop
  endfacet
  facet normal 0 0 -1
    outer loop
      vertex 0.125581 -1.99605 -4
      vertex 0.125581 1.99605 -4
      vertex 0.250666 1.98423 -4
    endloop
  endfacet
  facet normal 0 0 -1
    outer loop
      vertex 0 -2 -4
      vertex 0.125581 1.99605 -4
      vertex 0.125581 -1.99605 -4
    endloop
  endfacet
  facet normal 0 0 -1
    outer loop
      vertex 0 -2 -4
      vertex 0 2 -4
      vertex 0.125581 1.99605 -4
    endloop
  endfacet
  facet normal 0 0 -1
    outer loop
      vertex -0.125581 -1.99605 -4
      vertex 0 2 -4
      vertex 0 -2 -4
    endloop
  endfacet
  facet normal 0 0 -1
    outer loop
      vertex -0.125581 -1.99605 -4
      vertex -0.125581 1.99605 -4
      vertex 0 2 -4
    endloop
  endfacet
  facet normal 0 0 -1
    outer loop
      vertex -0.250666 -1.98423 -4
      vertex -0.125581 1.99605 -4
      vertex -0.125581 -1.99605 -4
    endloop
  endfacet
  facet normal 0 0 -1
    outer loop
      vertex -0.250666 -1.98423 -4
      vertex -0.250666 1.98423 -4
      vertex -0.125581 1.99605 -4
    endloop
  endfacet
  facet normal 0 0 -1
    outer loop
      vertex -0.374763 -1.96457 -4
      vertex -0.250666 1.98423 -4
      vertex -0.250666 -1.98423 -4
    endloop
  endfacet
  facet normal 0 0 -1
    outer loop
      vertex -0.374763 -1.96457 -4
      vertex -0.374763 1.96457 -4
      vertex -0.250666 1.98423 -4
    endloop
  endfacet
  facet normal 0 0 -1
    outer loop
      vertex -0.49738 -1.93717 -4
      vertex -0.374763 1.96457 -4
      vertex -0.374763 -1.96457 -4
    endloop
  endfacet
  facet normal 0 0 -1
    outer loop
      vertex -0.49738 -1.93717 -4
      vertex -0.49738 1.93717 -4
      vertex -0.374763 1.96457 -4
    endloop
  endfacet
  facet normal 0 0 -1
    outer loop
      vertex -0.618034 -1.90211 -4
      vertex -0.49738 1.93717 -4
      vertex -0.49738 -1.93717 -4
    endloop
  endfacet
  facet normal 0 0 -1
    outer loop
      vertex -0.618034 -1.90211 -4
      vertex -0.618034 1.90211 -4
      vertex -0.49738 1.93717 -4
    endloop
  endfacet
  facet normal 0 0 -1
    outer loop
      vertex -0.736249 -1.85955 -4
      vertex -0.618034 1.90211 -4
      vertex -0.618034 -1.90211 -4
    endloop
  endfacet
  facet normal 0 0 -1
    outer loop
      vertex -0.736249 -1.85955 -4
      vertex -0.736249 1.85955 -4
      vertex -0.618034 1.90211 -4
    endloop
  endfacet
  facet normal 0 0 -1
    outer loop
      vertex -0.851559 -1.80965 -4
      vertex -0.736249 1.85955 -4
      vertex -0.736249 -1.85955 -4
    endloop
  endfacet
  facet normal 0 0 -1
    outer loop
      vertex -0.851559 -1.80965 -4
      vertex -0.851559 1.80965 -4
      vertex -0.736249 1.85955 -4
    endloop
  endfacet
  facet normal 0 0 -1
    outer loop
      vertex -0.963507 -1.75261 -4
      vertex -0.851559 1.80965 -4
      vertex -0.851559 -1.80965 -4
    endloop
  endfacet
  facet normal 0 0 -1
    outer loop
      vertex -0.963507 -1.75261 -4
      vertex -0.963507 1.75261 -4
      vertex -0.851559 1.80965 -4
    endloop
  endfacet
  facet normal 0 0 -1
    outer loop
      vertex -1.07165 -1.68866 -4
      vertex -0.963507 1.75261 -4
      vertex -0.963507 -1.75261 -4
    endloop
  endfacet
  facet normal 0 0 -1
    outer loop
      vertex -1.07165 -1.68866 -4
      vertex -1.07165 1.68866 -4
      vertex -0.963507 1.75261 -4
    endloop
  endfacet
  facet normal 0 0 -1
    outer loop
      vertex -1.17557 -1.61803 -4
      vertex -1.07165 1.68866 -4
      vertex -1.07165 -1.68866 -4
    endloop
  endfacet
  facet normal 0 0 -1
    outer loop
      vertex -1.17557 -1.61803 -4
      vertex -1.17557 1.61803 -4
      vertex -1.07165 1.68866 -4
    endloop
  endfacet
  facet normal 0 0 -1
    outer loop
      vertex -1.27485 -1.54103 -4
      vertex -1.17557 1.61803 -4
      vertex -1.17557 -1.61803 -4
    endloop
  endfacet
  facet normal 0 0 -1
    outer loop
      vertex -1.27485 -1.54103 -4
      vertex -1.27485 1.54103 -4
      vertex -1.17557 1.61803 -4
    endloop
  endfacet
  facet normal 0 0 -1
    outer loop
      vertex -1.36909 -1.45794 -4
      vertex -1.27485 1.54103 -4
      vertex -1.27485 -1.54103 -4
    endloop
  endfacet
  facet normal 0 0 -1
    outer loop
      vertex -1.36909 -1.45794 -4
      vertex -1.36909 1.45794 -4
      vertex -1.27485 1.54103 -4
    endloop
  endfacet
  facet normal 0 0 -1
    outer loop
      vertex -1.45794 -1.36909 -4
      vertex -1.36909 1.45794 -4
      vertex -1.36909 -1.45794 -4
    endloop
  endfacet
  facet normal 0 0 -1
    outer loop
      vertex -1.45794 -1.36909 -4
      vertex -1.45794 1.36909 -4
      vertex -1.36909 1.45794 -4
    endloop
  endfacet
  facet normal 0 0 -1
    outer loop
      vertex -1.54103 -1.27485 -4
      vertex -1.45794 1.36909 -4
      vertex -1.45794 -1.36909 -4
    endloop
  endfacet
  facet normal 0 0 -1
    outer loop
      vertex -1.54103 -1.27485 -4
      vertex -1.54103 1.27485 -4
      vertex -1.45794 1.36909 -4
    endloop
  endfacet
  facet normal 0 0 -1
    outer loop
      vertex -1.61803 -1.17557 -4
      vertex -1.54103 1.27485 -4
      vertex -1.54103 -1.27485 -4
    endloop
  endfacet
  facet normal 0 0 -1
    outer loop
      vertex -1.61803 -1.17557 -4
      vertex -1.61803 1.17557 -4
      vertex -1.54103 1.27485 -4
    endloop
  endfacet
  facet normal 0 0 -1
    outer loop
      vertex -1.68866 -1.07165 -4
      vertex -1.61803 1.17557 -4
      vertex -1.61803 -1.17557 -4
    endloop
  endfacet
  facet normal 0 0 -1
    outer loop
      vertex -1.68866 -1.07165 -4
      vertex -1.68866 1.07165 -4
      vertex -1.61803 1.17557 -4
    endloop
  endfacet
  facet normal 0 0 -1
    outer loop
      vertex -1.75261 -0.963507 -4
      vertex -1.68866 1.07165 -4
      vertex -1.68866 -1.07165 -4
    endloop
  endfacet
  facet normal 0 0 -1
    outer loop
      vertex -1.75261 -0.963507 -4
      vertex -1.75261 0.963507 -4
      vertex -1.68866 1.07165 -4
    endloop
  endfacet
  facet normal 0 0 -1
    outer loop
      vertex -1.80965 -0.851559 -4
      vertex -1.75261 0.963507 -4
      vertex -1.75261 -0.963507 -4
    endloop
  endfacet
  facet normal 0 0 -1
    outer loop
      vertex -1.80965 -0.851559 -4
      vertex -1.80965 0.851559 -4
      vertex -1.75261 0.963507 -4
    endloop
  endfacet
  facet normal 0 0 -1
    outer loop
      vertex -1.85955 -0.736249 -4
      vertex -1.80965 0.851559 -4
      vertex -1.80965 -0.851559 -4
    endloop
  endfacet
  facet normal 0 0 -1
    outer loop
      vertex -1.85955 -0.736249 -4
      vertex -1.85955 0.736249 -4
      vertex -1.80965 0.851559 -4
    endloop
  endfacet
  facet normal 0 0 -1
    outer loop
      vertex -1.90211 -0.618034 -4
      vertex -1.85955 0.736249 -4
      vertex -1.85955 -0.736249 -4
    endloop
  endfacet
  facet normal 0 0 -1
    outer loop
      vertex -1.90211 -0.618034 -4
      vertex -1.90211 0.618034 -4
      vertex -1.85955 0.736249 -4
    endloop
  endfacet
  facet normal 0 0 -1
    outer loop
      vertex -1.93717 -0.49738 -4
      vertex -1.90211 0.618034 -4
      vertex -1.90211 -0.618034 -4
    endloop
  endfacet
  facet normal 0 0 -1
    outer loop
      vertex -1.93717 -0.49738 -4
      vertex -1.93717 0.49738 -4
      vertex -1.90211 0.618034 -4
    endloop
  endfacet
  facet normal 0 0 -1
    outer loop
      vertex -1.96457 -0.374763 -4
      vertex -1.93717 0.49738 -4
      vertex -1.93717 -0.49738 -4
    endloop
  endfacet
  facet normal 0 0 -1
    outer loop
      vertex -1.96457 -0.374763 -4
      vertex -1.96457 0.374763 -4
      vertex -1.93717 0.49738 -4
    endloop
  endfacet
  facet normal 0 0 -1
    outer loop
      vertex -1.98423 -0.250666 -4
      vertex -1.96457 0.374763 -4
      vertex -1.96457 -0.374763 -4
    endloop
  endfacet
  facet normal 0 0 -1
    outer loop
      vertex -1.98423 -0.250666 -4
      vertex -1.98423 0.250666 -4
      vertex -1.96457 0.374763 -4
    endloop
  endfacet
  facet normal 0 0 -1
    outer loop
      vertex -1.99605 -0.125581 -4
      vertex -1.98423 0.250666 -4
      vertex -1.98423 -0.250666 -4
    endloop
  endfacet
  facet normal 0 0 -1
    outer loop
      vertex -1.99605 -0.125581 -4
      vertex -1.99605 0.125581 -4
      vertex -1.98423 0.250666 -4
    endloop
  endfacet
  facet normal 0 -0 -1
    outer loop
      vertex -1.99605 0.125581 -4
      vertex -1.99605 -0.125581 -4
      vertex -2 0 -4
    endloop
  endfacet
  facet normal 0 0 1
    outer loop
      vertex 1.99605 0.125581 4
      vertex 1.99605 -0.125581 4
      vertex 2 0 4
    endloop
  endfacet
  facet normal 0 0 1
    outer loop
      vertex 1.98423 0.250666 4
      vertex 1.99605 -0.125581 4
      vertex 1.99605 0.125581 4
    endloop
  endfacet
  facet normal 0 0 1
    outer loop
      vertex 1.98423 0.250666 4
      vertex 1.98423 -0.250666 4
      vertex 1.99605 -0.125581 4
    endloop
  endfacet
  facet normal 0 0 1
    outer loop
      vertex 1.96457 0.374763 4
      vertex 1.98423 -0.250666 4
      vertex 1.98423 0.250666 4
    endloop
  endfacet
  facet normal 0 0 1
    outer loop
      vertex 1.96457 0.374763 4
      vertex 1.96457 -0.374763 4
      vertex 1.98423 -0.250666 4
    endloop
  endfacet
  facet normal 0 0 1
    outer loop
      vertex 1.93717 0.49738 4
      vertex 1.96457 -0.374763 4
      vertex 1.96457 0.374763 4
    endloop
  endfacet
  facet normal 0 0 1
    outer loop
      vertex 1.93717 0.49738 4
      vertex 1.93717 -0.49738 4
      vertex 1.96457 -0.374763 4
    endloop
  endfacet
  facet normal 0 0 1
    outer loop
      vertex 1.90211 0.618034 4
      vertex 1.93717 -0.49738 4
      vertex 1.93717 0.49738 4
    endloop
  endfacet
  facet normal 0 0 1
    outer loop
      vertex 1.90211 0.618034 4
      vertex 1.90211 -0.618034 4
      vertex 1.93717 -0.49738 4
    endloop
  endfacet
  facet normal 0 0 1
    outer loop
      vertex 1.85955 0.736249 4
      vertex 1.90211 -0.618034 4
      vertex 1.90211 0.618034 4
    endloop
  endfacet
  facet normal 0 0 1
    outer loop
      vertex 1.85955 0.736249 4
      vertex 1.85955 -0.736249 4
      vertex 1.90211 -0.618034 4
    endloop
  endfacet
  facet normal 0 0 1
    outer loop
      vertex 1.80965 0.851559 4
      vertex 1.85955 -0.736249 4
      vertex 1.85955 0.736249 4
    endloop
  endfacet
  facet normal 0 0 1
    outer loop
      vertex 1.80965 0.851559 4
      vertex 1.80965 -0.851559 4
      vertex 1.85955 -0.736249 4
    endloop
  endfacet
  facet normal 0 0 1
    outer loop
      vertex 1.75261 0.963507 4
      vertex 1.80965 -0.851559 4
      vertex 1.80965 0.851559 4
    endloop
  endfacet
  facet normal 0 0 1
    outer loop
      vertex 1.75261 0.963507 4
      vertex 1.75261 -0.963507 4
      vertex 1.80965 -0.851559 4
    endloop
  endfacet
  facet normal 0 0 1
    outer loop
      vertex 1.68866 1.07165 4
      vertex 1.75261 -0.963507 4
      vertex 1.75261 0.963507 4
    endloop
  endfacet
  facet normal 0 0 1
    outer loop
      vertex 1.68866 1.07165 4
      vertex 1.68866 -1.07165 4
      vertex 1.75261 -0.963507 4
    endloop
  endfacet
  facet normal 0 0 1
    outer loop
      vertex 1.61803 1.17557 4
      vertex 1.68866 -1.07165 4
      vertex 1.68866 1.07165 4
    endloop
  endfacet
  facet normal 0 0 1
    outer loop
      vertex 1.61803 1.17557 4
      vertex 1.61803 -1.17557 4
      vertex 1.68866 -1.07165 4
    endloop
  endfacet
  facet normal 0 0 1
    outer loop
      vertex 1.54103 1.27485 4
      vertex 1.61803 -1.17557 4
      vertex 1.61803 1.17557 4
    endloop
  endfacet
  facet normal 0 0 1
    outer loop
      vertex 1.54103 1.27485 4
      vertex 1.54103 -1.27485 4
      vertex 1.61803 -1.17557 4
    endloop
  endfacet
  facet normal 0 0 1
    outer loop
      vertex 1.45794 1.36909 4
      vertex 1.54103 -1.27485 4
      vertex 1.54103 1.27485 4
    endloop
  endfacet
  facet normal 0 0 1
    outer loop
      vertex 1.45794 1.36909 4
      vertex 1.45794 -1.36909 4
      vertex 1.54103 -1.27485 4
    endloop
  endfacet
  facet normal 0 0 1
    outer loop
      vertex 1.36909 1.45794 4
      vertex 1.45794 -1.36909 4
      vertex 1.45794 1.36909 4
    endloop
  endfacet
  facet normal 0 0 1
    outer loop
      vertex 1.36909 1.45794 4
      vertex 1.36909 -1.45794 4
      vertex 1.45794 -1.36909 4
    endloop
  endfacet
  facet normal 0 0 1
    outer loop
      vertex 1.27485 1.54103 4
      vertex 1.36909 -1.45794 4
      vertex 1.36909 1.45794 4
    endloop
  endfacet
  facet normal 0 0 1
    outer loop
      vertex 1.27485 1.54103 4
      vertex 1.27485 -1.54103 4
      vertex 1.36909 -1.45794 4
    endloop
  endfacet
  facet normal 0 0 1
    outer loop
      vertex 1.17557 1.61803 4
      vertex 1.27485 -1.54103 4
      vertex 1.27485 1.54103 4
    endloop
  endfacet
  facet normal 0 0 1
    outer loop
      vertex 1.17557 1.61803 4
      vertex 1.17557 -1.61803 4
      vertex 1.27485 -1.54103 4
    endloop
  endfacet
  facet normal 0 0 1
    outer loop
      vertex 1.07165 1.68866 4
      vertex 1.17557 -1.61803 4
      vertex 1.17557 1.61803 4
    endloop
  endfacet
  facet normal 0 0 1
    outer loop
      vertex 1.07165 1.68866 4
      vertex 1.07165 -1.68866 4
      vertex 1.17557 -1.61803 4
    endloop
  endfacet
  facet normal 0 0 1
    outer loop
      vertex 0.963507 1.75261 4
      vertex 1.07165 -1.68866 4
      vertex 1.07165 1.68866 4
    endloop
  endfacet
  facet normal 0 0 1
    outer loop
      vertex 0.963507 1.75261 4
      vertex 0.963507 -1.75261 4
      vertex 1.07165 -1.68866 4
    endloop
  endfacet
  facet normal 0 0 1
    outer loop
      vertex 0.851559 1.80965 4
      vertex 0.963507 -1.75261 4
      vertex 0.963507 1.75261 4
    endloop
  endfacet
  facet normal 0 0 1
    outer loop
      vertex 0.851559 1.80965 4
      vertex 0.851559 -1.80965 4
      vertex 0.963507 -1.75261 4
    endloop
  endfacet
  facet normal 0 0 1
    outer loop
      vertex 0.736249 1.85955 4
      vertex 0.851559 -1.80965 4
      vertex 0.851559 1.80965 4
    endloop
  endfacet
  facet normal 0 0 1
    outer loop
      vertex 0.736249 1.85955 4
      vertex 0.736249 -1.85955 4
      vertex 0.851559 -1.80965 4
    endloop
  endfacet
  facet normal 0 0 1
    outer loop
      vertex 0.618034 1.90211 4
      vertex 0.736249 -1.85955 4
      vertex 0.736249 1.85955 4
    endloop
  endfacet
  facet normal 0 0 1
    outer loop
      vertex 0.618034 1.90211 4
      vertex 0.618034 -1.90211 4
      vertex 0.736249 -1.85955 4
    endloop
  endfacet
  facet normal 0 0 1
    outer loop
      vertex 0.49738 1.93717 4
      vertex 0.618034 -1.90211 4
      vertex 0.618034 1.90211 4
    endloop
  endfacet
  facet normal 0 0 1
    outer loop
      vertex 0.49738 1.93717 4
      vertex 0.49738 -1.93717 4
      vertex 0.618034 -1.90211 4
    endloop
  endfacet
  facet normal 0 0 1
    outer loop
      vertex 0.374763 1.96457 4
      vertex 0.49738 -1.93717 4
      vertex 0.49738 1.93717 4
    endloop
  endfacet
  facet normal 0 0 1
    outer loop
      vertex 0.374763 1.96457 4
      vertex 0.374763 -1.96457 4
      vertex 0.49738 -1.93717 4
    endloop
  endfacet
  facet normal 0 0 1
    outer loop
      vertex 0.250666 1.98423 4
      vertex 0.374763 -1.96457 4
      vertex 0.374763 1.96457 4
    endloop
  endfacet
  facet normal 0 0 1
    outer loop
      vertex 0.250666 1.98423 4
      vertex 0.250666 -1.98423 4
      vertex 0.374763 -1.96457 4
    endloop
  endfacet
  facet normal 0 0 1
    outer loop
      vertex 0.125581 1.99605 4
      vertex 0.250666 -1.98423 4
      vertex 0.250666 1.98423 4
    endloop
  endfacet
  facet normal 0 0 1
    outer loop
      vertex 0.125581 1.99605 4
      vertex 0.125581 -1.99605 4
      vertex 0.250666 -1.98423 4
    endloop
  endfacet
  facet normal 0 0 1
    outer loop
      vertex 0 2 4
      vertex 0.125581 -1.99605 4
      vertex 0.125581 1.99605 4
    endloop
  endfacet
  facet normal 0 0 1
    outer loop
      vertex 0 2 4
      vertex 0 -2 4
      vertex 0.125581 -1.99605 4
    endloop
  endfacet
  facet normal -0 0 1
    outer loop
      vertex -0.125581 1.99605 4
      vertex 0 -2 4
      vertex 0 2 4
    endloop
  endfacet
  facet normal 0 0 1
    outer loop
      vertex -0.125581 1.99605 4
      vertex -0.125581 -1.99605 4
      vertex 0 -2 4
    endloop
  endfacet
  facet normal -0 0 1
    outer loop
      vertex -0.250666 1.98423 4
      vertex -0.125581 -1.99605 4
      vertex -0.125581 1.99605 4
    endloop
  endfacet
  facet normal 0 0 1
    outer loop
      vertex -0.250666 1.98423 4
      vertex -0.250666 -1.98423 4
      vertex -0.125581 -1.99605 4
    endloop
  endfacet
  facet normal -0 0 1
    outer loop
      vertex -0.374763 1.96457 4
      vertex -0.250666 -1.98423 4
      vertex -0.250666 1.98423 4
    endloop
  endfacet
  facet normal 0 0 1
    outer loop
      vertex -0.374763 1.96457 4
      vertex -0.374763 -1.96457 4
      vertex -0.250666 -1.98423 4
    endloop
  endfacet
  facet normal -0 0 1
    outer loop
      vertex -0.49738 1.93717 4
      vertex -0.374763 -1.96457 4
      vertex -0.374763 1.96457 4
    endloop
  endfacet
  facet normal 0 0 1
    outer loop
      vertex -0.49738 1.93717 4
      vertex -0.49738 -1.93717 4
      vertex -0.374763 -1.96457 4
    endloop
  endfacet
  facet normal -0 0 1
    outer loop
      vertex -0.618034 1.90211 4
      vertex -0.49738 -1.93717 4
      vertex -0.49738 1.93717 4
    endloop
  endfacet
  facet normal 0 0 1
    outer loop
      vertex -0.618034 1.90211 4
      vertex -0.618034 -1.90211 4
      vertex -0.49738 -1.93717 4
    endloop
  endfacet
  facet normal -0 0 1
    outer loop
      vertex -0.736249 1.85955 4
      vertex -0.618034 -1.90211 4
      vertex -0.618034 1.90211 4
    endloop
  endfacet
  facet normal 0 0 1
    outer loop
      vertex -0.736249 1.85955 4
      vertex -0.736249 -1.85955 4
      vertex -0.618034 -1.90211 4
    endloop
  endfacet
  facet normal -0 0 1
    outer loop
      vertex -0.851559 1.80965 4
      vertex -0.736249 -1.85955 4
      vertex -0.736249 1.85955 4
    endloop
  endfacet
  facet normal 0 0 1
    outer loop
      vertex -0.851559 1.80965 4
      vertex -0.851559 -1.80965 4
      vertex -0.736249 -1.85955 4
    endloop
  endfacet
  facet normal -0 0 1
    outer loop
      vertex -0.963507 1.75261 4
      vertex -0.851559 -1.80965 4
      vertex -0.851559 1.80965 4
    endloop
  endfacet
  facet normal 0 0 1
    outer loop
      vertex -0.963507 1.75261 4
      vertex -0.963507 -1.75261 4
      vertex -0.851559 -1.80965 4
    endloop
  endfacet
  facet normal -0 0 1
    outer loop
      vertex -1.07165 1.68866 4
      vertex -0.963507 -1.75261 4
      vertex -0.963507 1.75261 4
    endloop
  endfacet
  facet normal 0 0 1
    outer loop
      vertex -1.07165 1.68866 4
      vertex -1.07165 -1.68866 4
      vertex -0.963507 -1.75261 4
    endloop
  endfacet
  facet normal -0 0 1
    outer loop
      vertex -1.17557 1.61803 4
      vertex -1.07165 -1.68866 4
      vertex -1.07165 1.68866 4
    endloop
  endfacet
  facet normal 0 0 1
    outer loop
      vertex -1.17557 1.61803 4
      vertex -1.17557 -1.61803 4
      vertex -1.07165 -1.68866 4
    endloop
  endfacet
  facet normal -0 0 1
    outer loop
      vertex -1.27485 1.54103 4
      vertex -1.17557 -1.61803 4
      vertex -1.17557 1.61803 4
    endloop
  endfacet
  facet normal 0 0 1
    outer loop
      vertex -1.27485 1.54103 4
      vertex -1.27485 -1.54103 4
      vertex -1.17557 -1.61803 4
    endloop
  endfacet
  facet normal -0 0 1
    outer loop
      vertex -1.36909 1.45794 4
      vertex -1.27485 -1.54103 4
      vertex -1.27485 1.54103 4
    endloop
  endfacet
  facet normal 0 0 1
    outer loop
      vertex -1.36909 1.45794 4
      vertex -1.36909 -1.45794 4
      vertex -1.27485 -1.54103 4
    endloop
  endfacet
  facet normal -0 0 1
    outer loop
      vertex -1.45794 1.36909 4
      vertex -1.36909 -1.45794 4
      vertex -1.36909 1.45794 4
    endloop
  endfacet
  facet normal 0 0 1
    outer loop
      vertex -1.45794 1.36909 4
      vertex -1.45794 -1.36909 4
      vertex -1.36909 -1.45794 4
    endloop
  endfacet
  facet normal -0 0 1
    outer loop
      vertex -1.54103 1.27485 4
      vertex -1.45794 -1.36909 4
      vertex -1.45794 1.36909 4
    endloop
  endfacet
  facet normal 0 0 1
    outer loop
      vertex -1.54103 1.27485 4
      vertex -1.54103 -1.27485 4
      vertex -1.45794 -1.36909 4
    endloop
  endfacet
  facet normal -0 0 1
    outer loop
      vertex -1.61803 1.17557 4
      vertex -1.54103 -1.27485 4
      vertex -1.54103 1.27485 4
    endloop
  endfacet
  facet normal 0 0 1
    outer loop
      vertex -1.61803 1.17557 4
      vertex -1.61803 -1.17557 4
      vertex -1.54103 -1.27485 4
    endloop
  endfacet
  facet normal -0 0 1
    outer loop
      vertex -1.68866 1.07165 4
      vertex -1.61803 -1.17557 4
      vertex -1.61803 1.17557 4
    endloop
  endfacet
  facet normal 0 0 1
    outer loop
      vertex -1.68866 1.07165 4
      vertex -1.68866 -1.07165 4
      vertex -1.61803 -1.17557 4
    endloop
  endfacet
  facet normal -0 0 1
    outer loop
      vertex -1.75261 0.963507 4
      vertex -1.68866 -1.07165 4
      vertex -1.68866 1.07165 4
    endloop
  endfacet
  facet normal 0 0 1
    outer loop
      vertex -1.75261 0.963507 4
      vertex -1.75261 -0.963507 4
      vertex -1.68866 -1.07165 4
    endloop
  endfacet
  facet normal -0 0 1
    outer loop
      vertex -1.80965 0.851559 4
      vertex -1.75261 -0.963507 4
      vertex -1.75261 0.963507 4
    endloop
  endfacet
  facet normal 0 0 1
    outer loop
      vertex -1.80965 0.851559 4
      vertex -1.80965 -0.851559 4
      vertex -1.75261 -0.963507 4
    endloop
  endfacet
  facet normal -0 0 1
    outer loop
      vertex -1.85955 0.736249 4
      vertex -1.80965 -0.851559 4
      vertex -1.80965 0.851559 4
    endloop
  endfacet
  facet normal 0 0 1
    outer loop
      vertex -1.85955 0.736249 4
      vertex -1.85955 -0.736249 4
      vertex -1.80965 -0.851559 4
    endloop
  endfacet
  facet normal -0 0 1
    outer loop
      vertex -1.90211 0.618034 4
      vertex -1.85955 -0.736249 4
      vertex -1.85955 0.736249 4
    endloop
  endfacet
  facet normal 0 0 1
    outer loop
      vertex -1.90211 0.618034 4
      vertex -1.90211 -0.618034 4
      vertex -1.85955 -0.736249 4
    endloop
  endfacet
  facet normal -0 0 1
    outer loop
      vertex -1.93717 0.49738 4
      vertex -1.90211 -0.618034 4
      vertex -1.90211 0.618034 4
    endloop
  endfacet
  facet normal 0 0 1
    outer loop
      vertex -1.93717 0.49738 4
      vertex -1.93717 -0.49738 4
      vertex -1.90211 -0.618034 4
    endloop
  endfacet
  facet normal -0 0 1
    outer loop
      vertex -1.96457 0.374763 4
      vertex -1.93717 -0.49738 4
      vertex -1.93717 0.49738 4
    endloop
  endfacet
  facet normal 0 0 1
    outer loop
      vertex -1.96457 0.374763 4
      vertex -1.96457 -0.374763 4
      vertex -1.93717 -0.49738 4
    endloop
  endfacet
  facet normal -0 0 1
    outer loop
      vertex -1.98423 0.250666 4
      vertex -1.96457 -0.374763 4
      vertex -1.96457 0.374763 4
    endloop
  endfacet
  facet normal 0 0 1
    outer loop
      vertex -1.98423 0.250666 4
      vertex -1.98423 -0.250666 4
      vertex -1.96457 -0.374763 4
    endloop
  endfacet
  facet normal -0 0 1
    outer loop
      vertex -1.99605 0.125581 4
      vertex -1.98423 -0.250666 4
      vertex -1.98423 0.250666 4
    endloop
  endfacet
  facet normal 0 0 1
    outer loop
      vertex -1.99605 0.125581 4
      vertex -1.99605 -0.125581 4
      vertex -1.98423 -0.250666 4
    endloop
  endfacet
  facet normal 0 -0 1
    outer loop
      vertex -1.99605 -0.125581 4
      vertex -1.99605 0.125581 4
      vertex -2 0 4
    endloop
  endfacet
endsolid OpenSCAD_Model
