solid OpenSCAD_Model
  facet normal 0.999507 0.0313971 0
    outer loop
      vertex 5.8 0 4
      vertex 5.78856 0.364185 -4
      vertex 5.78856 0.364185 4
    endloop
  endfacet
  facet normal 0.999507 0.0313971 0
    outer loop
      vertex 5.78856 0.364185 -4
      vertex 5.8 0 4
      vertex 5.8 0 -4
    endloop
  endfacet
  facet normal 0.995562 0.0941089 0
    outer loop
      vertex 5.78856 0.364185 4
      vertex 5.75427 0.726933 -4
      vertex 5.75427 0.726933 4
    endloop
  endfacet
  facet normal 0.995562 0.0941089 0
    outer loop
      vertex 5.75427 0.726933 -4
      vertex 5.78856 0.364185 4
      vertex 5.78856 0.364185 -4
    endloop
  endfacet
  facet normal 0.987688 0.156437 0
    outer loop
      vertex 5.75427 0.726933 4
      vertex 5.69727 1.08681 -4
      vertex 5.69727 1.08681 4
    endloop
  endfacet
  facet normal 0.987688 0.156437 0
    outer loop
      vertex 5.69727 1.08681 -4
      vertex 5.75427 0.726933 4
      vertex 5.75427 0.726933 -4
    endloop
  endfacet
  facet normal 0.975913 0.218159 0
    outer loop
      vertex 5.69727 1.08681 4
      vertex 5.61778 1.4424 -4
      vertex 5.61778 1.4424 4
    endloop
  endfacet
  facet normal 0.975913 0.218159 0
    outer loop
      vertex 5.61778 1.4424 -4
      vertex 5.69727 1.08681 4
      vertex 5.69727 1.08681 -4
    endloop
  endfacet
  facet normal 0.960298 0.278978 0
    outer loop
      vertex 5.61778 1.4424 4
      vertex 5.51613 1.7923 -4
      vertex 5.51613 1.7923 4
    endloop
  endfacet
  facet normal 0.960298 0.278978 0
    outer loop
      vertex 5.51613 1.7923 -4
      vertex 5.61778 1.4424 4
      vertex 5.61778 1.4424 -4
    endloop
  endfacet
  facet normal 0.940874 0.338755 0
    outer loop
      vertex 5.51613 1.7923 4
      vertex 5.3927 2.13512 -4
      vertex 5.3927 2.13512 4
    endloop
  endfacet
  facet normal 0.940874 0.338755 0
    outer loop
      vertex 5.3927 2.13512 -4
      vertex 5.51613 1.7923 4
      vertex 5.51613 1.7923 -4
    endloop
  endfacet
  facet normal 0.917762 0.39713 0
    outer loop
      vertex 5.3927 2.13512 4
      vertex 5.248 2.46952 -4
      vertex 5.248 2.46952 4
    endloop
  endfacet
  facet normal 0.917762 0.39713 0
    outer loop
      vertex 5.248 2.46952 -4
      vertex 5.3927 2.13512 4
      vertex 5.3927 2.13512 -4
    endloop
  endfacet
  facet normal 0.891004 0.453996 0
    outer loop
      vertex 5.248 2.46952 4
      vertex 5.08258 2.79417 -4
      vertex 5.08258 2.79417 4
    endloop
  endfacet
  facet normal 0.891004 0.453996 0
    outer loop
      vertex 5.08258 2.79417 -4
      vertex 5.248 2.46952 4
      vertex 5.248 2.46952 -4
    endloop
  endfacet
  facet normal 0.860742 0.509041 0
    outer loop
      vertex 5.08258 2.79417 4
      vertex 4.8971 3.1078 -4
      vertex 4.8971 3.1078 4
    endloop
  endfacet
  facet normal 0.860742 0.509041 0
    outer loop
      vertex 4.8971 3.1078 -4
      vertex 5.08258 2.79417 4
      vertex 5.08258 2.79417 -4
    endloop
  endfacet
  facet normal 0.827077 0.562089 0
    outer loop
      vertex 4.8971 3.1078 4
      vertex 4.6923 3.40915 -4
      vertex 4.6923 3.40915 4
    endloop
  endfacet
  facet normal 0.827077 0.562089 0
    outer loop
      vertex 4.6923 3.40915 -4
      vertex 4.8971 3.1078 4
      vertex 4.8971 3.1078 -4
    endloop
  endfacet
  facet normal 0.790163 0.612897 0
    outer loop
      vertex 4.6923 3.40915 4
      vertex 4.46898 3.69706 -4
      vertex 4.46898 3.69706 4
    endloop
  endfacet
  facet normal 0.790163 0.612897 0
    outer loop
      vertex 4.46898 3.69706 -4
      vertex 4.6923 3.40915 4
      vertex 4.6923 3.40915 -4
    endloop
  endfacet
  facet normal 0.750105 0.661319 0
    outer loop
      vertex 4.46898 3.69706 4
      vertex 4.22802 3.97037 -4
      vertex 4.22802 3.97037 4
    endloop
  endfacet
  facet normal 0.750105 0.661319 0
    outer loop
      vertex 4.22802 3.97037 -4
      vertex 4.46898 3.69706 4
      vertex 4.46898 3.69706 -4
    endloop
  endfacet
  facet normal 0.707107 0.707107 0
    outer loop
      vertex 4.22802 3.97037 4
      vertex 3.97037 4.22802 -4
      vertex 3.97037 4.22802 4
    endloop
  endfacet
  facet normal 0.707107 0.707107 0
    outer loop
      vertex 3.97037 4.22802 -4
      vertex 4.22802 3.97037 4
      vertex 4.22802 3.97037 -4
    endloop
  endfacet
  facet normal 0.661319 0.750105 -0
    outer loop
      vertex 3.97037 4.22802 -4
      vertex 3.69706 4.46898 4
      vertex 3.97037 4.22802 4
    endloop
  endfacet
  facet normal 0.661319 0.750105 0
    outer loop
      vertex 3.69706 4.46898 4
      vertex 3.97037 4.22802 -4
      vertex 3.69706 4.46898 -4
    endloop
  endfacet
  facet normal 0.612897 0.790163 -0
    outer loop
      vertex 3.69706 4.46898 -4
      vertex 3.40915 4.6923 4
      vertex 3.69706 4.46898 4
    endloop
  endfacet
  facet normal 0.612897 0.790163 0
    outer loop
      vertex 3.40915 4.6923 4
      vertex 3.69706 4.46898 -4
      vertex 3.40915 4.6923 -4
    endloop
  endfacet
  facet normal 0.562089 0.827077 -0
    outer loop
      vertex 3.40915 4.6923 -4
      vertex 3.1078 4.8971 4
      vertex 3.40915 4.6923 4
    endloop
  endfacet
  facet normal 0.562089 0.827077 0
    outer loop
      vertex 3.1078 4.8971 4
      vertex 3.40915 4.6923 -4
      vertex 3.1078 4.8971 -4
    endloop
  endfacet
  facet normal 0.509041 0.860742 -0
    outer loop
      vertex 3.1078 4.8971 -4
      vertex 2.79417 5.08258 4
      vertex 3.1078 4.8971 4
    endloop
  endfacet
  facet normal 0.509041 0.860742 0
    outer loop
      vertex 2.79417 5.08258 4
      vertex 3.1078 4.8971 -4
      vertex 2.79417 5.08258 -4
    endloop
  endfacet
  facet normal 0.453996 0.891004 -0
    outer loop
      vertex 2.79417 5.08258 -4
      vertex 2.46952 5.248 4
      vertex 2.79417 5.08258 4
    endloop
  endfacet
  facet normal 0.453996 0.891004 0
    outer loop
      vertex 2.46952 5.248 4
      vertex 2.79417 5.08258 -4
      vertex 2.46952 5.248 -4
    endloop
  endfacet
  facet normal 0.39713 0.917762 -0
    outer loop
      vertex 2.46952 5.248 -4
      vertex 2.13512 5.3927 4
      vertex 2.46952 5.248 4
    endloop
  endfacet
  facet normal 0.39713 0.917762 0
    outer loop
      vertex 2.13512 5.3927 4
      vertex 2.46952 5.248 -4
      vertex 2.13512 5.3927 -4
    endloop
  endfacet
  facet normal 0.338755 0.940874 -0
    outer loop
      vertex 2.13512 5.3927 -4
      vertex 1.7923 5.51613 4
      vertex 2.13512 5.3927 4
    endloop
  endfacet
  facet normal 0.338755 0.940874 0
    outer loop
      vertex 1.7923 5.51613 4
      vertex 2.13512 5.3927 -4
      vertex 1.7923 5.51613 -4
    endloop
  endfacet
  facet normal 0.278978 0.960298 -0
    outer loop
      vertex 1.7923 5.51613 -4
      vertex 1.4424 5.61778 4
      vertex 1.7923 5.51613 4
    endloop
  endfacet
  facet normal 0.278978 0.960298 0
    outer loop
      vertex 1.4424 5.61778 4
      vertex 1.7923 5.51613 -4
      vertex 1.4424 5.61778 -4
    endloop
  endfacet
  facet normal 0.218159 0.975913 -0
    outer loop
      vertex 1.4424 5.61778 -4
      vertex 1.08681 5.69727 4
      vertex 1.4424 5.61778 4
    endloop
  endfacet
  facet normal 0.218159 0.975913 0
    outer loop
      vertex 1.08681 5.69727 4
      vertex 1.4424 5.61778 -4
      vertex 1.08681 5.69727 -4
    endloop
  endfacet
  facet normal 0.156437 0.987688 -0
    outer loop
      vertex 1.08681 5.69727 -4
      vertex 0.726933 5.75427 4
      vertex 1.08681 5.69727 4
    endloop
  endfacet
  facet normal 0.156437 0.987688 0
    outer loop
      vertex 0.726933 5.75427 4
      vertex 1.08681 5.69727 -4
      vertex 0.726933 5.75427 -4
    endloop
  endfacet
  facet normal 0.0941089 0.995562 -0
    outer loop
      vertex 0.726933 5.75427 -4
      vertex 0.364185 5.78856 4
      vertex 0.726933 5.75427 4
    endloop
  endfacet
  facet normal 0.0941089 0.995562 0
    outer loop
      vertex 0.364185 5.78856 4
      vertex 0.726933 5.75427 -4
      vertex 0.364185 5.78856 -4
    endloop
  endfacet
  facet normal 0.0313971 0.999507 -0
    outer loop
      vertex 0.364185 5.78856 -4
      vertex 0 5.8 4
      vertex 0.364185 5.78856 4
    endloop
  endfacet
  facet normal 0.0313971 0.999507 0
    outer loop
      vertex 0 5.8 4
      vertex 0.364185 5.78856 -4
      vertex 0 5.8 -4
    endloop
  endfacet
  facet normal -0.0313971 0.999507 0
    outer loop
      vertex 0 5.8 -4
      vertex -0.364185 5.78856 4
      vertex 0 5.8 4
    endloop
  endfacet
  facet normal -0.0313971 0.999507 0
    outer loop
      vertex -0.364185 5.78856 4
      vertex 0 5.8 -4
      vertex -0.364185 5.78856 -4
    endloop
  endfacet
  facet normal -0.0941089 0.995562 0
    outer loop
      vertex -0.364185 5.78856 -4
      vertex -0.726933 5.75427 4
      vertex -0.364185 5.78856 4
    endloop
  endfacet
  facet normal -0.0941089 0.995562 0
    outer loop
      vertex -0.726933 5.75427 4
      vertex -0.364185 5.78856 -4
      vertex -0.726933 5.75427 -4
    endloop
  endfacet
  facet normal -0.156437 0.987688 0
    outer loop
      vertex -0.726933 5.75427 -4
      vertex -1.08681 5.69727 4
      vertex -0.726933 5.75427 4
    endloop
  endfacet
  facet normal -0.156437 0.987688 0
    outer loop
      vertex -1.08681 5.69727 4
      vertex -0.726933 5.75427 -4
      vertex -1.08681 5.69727 -4
    endloop
  endfacet
  facet normal -0.218159 0.975913 0
    outer loop
      vertex -1.08681 5.69727 -4
      vertex -1.4424 5.61778 4
      vertex -1.08681 5.69727 4
    endloop
  endfacet
  facet normal -0.218159 0.975913 0
    outer loop
      vertex -1.4424 5.61778 4
      vertex -1.08681 5.69727 -4
      vertex -1.4424 5.61778 -4
    endloop
  endfacet
  facet normal -0.278978 0.960298 0
    outer loop
      vertex -1.4424 5.61778 -4
      vertex -1.7923 5.51613 4
      vertex -1.4424 5.61778 4
    endloop
  endfacet
  facet normal -0.278978 0.960298 0
    outer loop
      vertex -1.7923 5.51613 4
      vertex -1.4424 5.61778 -4
      vertex -1.7923 5.51613 -4
    endloop
  endfacet
  facet normal -0.338755 0.940874 0
    outer loop
      vertex -1.7923 5.51613 -4
      vertex -2.13512 5.3927 4
      vertex -1.7923 5.51613 4
    endloop
  endfacet
  facet normal -0.338755 0.940874 0
    outer loop
      vertex -2.13512 5.3927 4
      vertex -1.7923 5.51613 -4
      vertex -2.13512 5.3927 -4
    endloop
  endfacet
  facet normal -0.39713 0.917762 0
    outer loop
      vertex -2.13512 5.3927 -4
      vertex -2.46952 5.248 4
      vertex -2.13512 5.3927 4
    endloop
  endfacet
  facet normal -0.39713 0.917762 0
    outer loop
      vertex -2.46952 5.248 4
      vertex -2.13512 5.3927 -4
      vertex -2.46952 5.248 -4
    endloop
  endfacet
  facet normal -0.453996 0.891004 0
    outer loop
      vertex -2.46952 5.248 -4
      vertex -2.79417 5.08258 4
      vertex -2.46952 5.248 4
    endloop
  endfacet
  facet normal -0.453996 0.891004 0
    outer loop
      vertex -2.79417 5.08258 4
      vertex -2.46952 5.248 -4
      vertex -2.79417 5.08258 -4
    endloop
  endfacet
  facet normal -0.509041 0.860742 0
    outer loop
      vertex -2.79417 5.08258 -4
      vertex -3.1078 4.8971 4
      vertex -2.79417 5.08258 4
    endloop
  endfacet
  facet normal -0.509041 0.860742 0
    outer loop
      vertex -3.1078 4.8971 4
      vertex -2.79417 5.08258 -4
      vertex -3.1078 4.8971 -4
    endloop
  endfacet
  facet normal -0.562089 0.827077 0
    outer loop
      vertex -3.1078 4.8971 -4
      vertex -3.40915 4.6923 4
      vertex -3.1078 4.8971 4
    endloop
  endfacet
  facet normal -0.562089 0.827077 0
    outer loop
      vertex -3.40915 4.6923 4
      vertex -3.1078 4.8971 -4
      vertex -3.40915 4.6923 -4
    endloop
  endfacet
  facet normal -0.612897 0.790163 0
    outer loop
      vertex -3.40915 4.6923 -4
      vertex -3.69706 4.46898 4
      vertex -3.40915 4.6923 4
    endloop
  endfacet
  facet normal -0.612897 0.790163 0
    outer loop
      vertex -3.69706 4.46898 4
      vertex -3.40915 4.6923 -4
      vertex -3.69706 4.46898 -4
    endloop
  endfacet
  facet normal -0.661319 0.750105 0
    outer loop
      vertex -3.69706 4.46898 -4
      vertex -3.97037 4.22802 4
      vertex -3.69706 4.46898 4
    endloop
  endfacet
  facet normal -0.661319 0.750105 0
    outer loop
      vertex -3.97037 4.22802 4
      vertex -3.69706 4.46898 -4
      vertex -3.97037 4.22802 -4
    endloop
  endfacet
  facet normal -0.707107 0.707107 0
    outer loop
      vertex -4.22802 3.97037 -4
      vertex -3.97037 4.22802 4
      vertex -3.97037 4.22802 -4
    endloop
  endfacet
  facet normal -0.707107 0.707107 0
    outer loop
      vertex -3.97037 4.22802 4
      vertex -4.22802 3.97037 -4
      vertex -4.22802 3.97037 4
    endloop
  endfacet
  facet normal -0.750105 0.661319 0
    outer loop
      vertex -4.46898 3.69706 -4
      vertex -4.22802 3.97037 4
      vertex -4.22802 3.97037 -4
    endloop
  endfacet
  facet normal -0.750105 0.661319 0
    outer loop
      vertex -4.22802 3.97037 4
      vertex -4.46898 3.69706 -4
      vertex -4.46898 3.69706 4
    endloop
  endfacet
  facet normal -0.790163 0.612897 0
    outer loop
      vertex -4.6923 3.40915 -4
      vertex -4.46898 3.69706 4
      vertex -4.46898 3.69706 -4
    endloop
  endfacet
  facet normal -0.790163 0.612897 0
    outer loop
      vertex -4.46898 3.69706 4
      vertex -4.6923 3.40915 -4
      vertex -4.6923 3.40915 4
    endloop
  endfacet
  facet normal -0.827077 0.562089 0
    outer loop
      vertex -4.8971 3.1078 -4
      vertex -4.6923 3.40915 4
      vertex -4.6923 3.40915 -4
    endloop
  endfacet
  facet normal -0.827077 0.562089 0
    outer loop
      vertex -4.6923 3.40915 4
      vertex -4.8971 3.1078 -4
      vertex -4.8971 3.1078 4
    endloop
  endfacet
  facet normal -0.860742 0.509041 0
    outer loop
      vertex -5.08258 2.79417 -4
      vertex -4.8971 3.1078 4
      vertex -4.8971 3.1078 -4
    endloop
  endfacet
  facet normal -0.860742 0.509041 0
    outer loop
      vertex -4.8971 3.1078 4
      vertex -5.08258 2.79417 -4
      vertex -5.08258 2.79417 4
    endloop
  endfacet
  facet normal -0.891004 0.453996 0
    outer loop
      vertex -5.248 2.46952 -4
      vertex -5.08258 2.79417 4
      vertex -5.08258 2.79417 -4
    endloop
  endfacet
  facet normal -0.891004 0.453996 0
    outer loop
      vertex -5.08258 2.79417 4
      vertex -5.248 2.46952 -4
      vertex -5.248 2.46952 4
    endloop
  endfacet
  facet normal -0.917762 0.39713 0
    outer loop
      vertex -5.3927 2.13512 -4
      vertex -5.248 2.46952 4
      vertex -5.248 2.46952 -4
    endloop
  endfacet
  facet normal -0.917762 0.39713 0
    outer loop
      vertex -5.248 2.46952 4
      vertex -5.3927 2.13512 -4
      vertex -5.3927 2.13512 4
    endloop
  endfacet
  facet normal -0.940874 0.338755 0
    outer loop
      vertex -5.51613 1.7923 -4
      vertex -5.3927 2.13512 4
      vertex -5.3927 2.13512 -4
    endloop
  endfacet
  facet normal -0.940874 0.338755 0
    outer loop
      vertex -5.3927 2.13512 4
      vertex -5.51613 1.7923 -4
      vertex -5.51613 1.7923 4
    endloop
  endfacet
  facet normal -0.960298 0.278978 0
    outer loop
      vertex -5.61778 1.4424 -4
      vertex -5.51613 1.7923 4
      vertex -5.51613 1.7923 -4
    endloop
  endfacet
  facet normal -0.960298 0.278978 0
    outer loop
      vertex -5.51613 1.7923 4
      vertex -5.61778 1.4424 -4
      vertex -5.61778 1.4424 4
    endloop
  endfacet
  facet normal -0.975913 0.218159 0
    outer loop
      vertex -5.69727 1.08681 -4
      vertex -5.61778 1.4424 4
      vertex -5.61778 1.4424 -4
    endloop
  endfacet
  facet normal -0.975913 0.218159 0
    outer loop
      vertex -5.61778 1.4424 4
      vertex -5.69727 1.08681 -4
      vertex -5.69727 1.08681 4
    endloop
  endfacet
  facet normal -0.987688 0.156437 0
    outer loop
      vertex -5.75427 0.726933 -4
      vertex -5.69727 1.08681 4
      vertex -5.69727 1.08681 -4
    endloop
  endfacet
  facet normal -0.987688 0.156437 0
    outer loop
      vertex -5.69727 1.08681 4
      vertex -5.75427 0.726933 -4
      vertex -5.75427 0.726933 4
    endloop
  endfacet
  facet normal -0.995562 0.0941089 0
    outer loop
      vertex -5.78856 0.364185 -4
      vertex -5.75427 0.726933 4
      vertex -5.75427 0.726933 -4
    endloop
  endfacet
  facet normal -0.995562 0.0941089 0
    outer loop
      vertex -5.75427 0.726933 4
      vertex -5.78856 0.364185 -4
      vertex -5.78856 0.364185 4
    endloop
  endfacet
  facet normal -0.999507 0.0313971 0
    outer loop
      vertex -5.8 0 -4
      vertex -5.78856 0.364185 4
      vertex -5.78856 0.364185 -4
    endloop
  endfacet
  facet normal -0.999507 0.0313971 0
    outer loop
      vertex -5.78856 0.364185 4
      vertex -5.8 0 -4
      vertex -5.8 0 4
    endloop
  endfacet
  facet normal -0.999507 -0.0313971 0
    outer loop
      vertex -5.78856 -0.364185 -4
      vertex -5.8 0 4
      vertex -5.8 0 -4
    endloop
  endfacet
  facet normal -0.999507 -0.0313971 0
    outer loop
      vertex -5.8 0 4
      vertex -5.78856 -0.364185 -4
      vertex -5.78856 -0.364185 4
    endloop
  endfacet
  facet normal -0.995562 -0.0941089 0
    outer loop
      vertex -5.75427 -0.726933 -4
      vertex -5.78856 -0.364185 4
      vertex -5.78856 -0.364185 -4
    endloop
  endfacet
  facet normal -0.995562 -0.0941089 0
    outer loop
      vertex -5.78856 -0.364185 4
      vertex -5.75427 -0.726933 -4
      vertex -5.75427 -0.726933 4
    endloop
  endfacet
  facet normal -0.987688 -0.156437 0
    outer loop
      vertex -5.69727 -1.08681 -4
      vertex -5.75427 -0.726933 4
      vertex -5.75427 -0.726933 -4
    endloop
  endfacet
  facet normal -0.987688 -0.156437 0
    outer loop
      vertex -5.75427 -0.726933 4
      vertex -5.69727 -1.08681 -4
      vertex -5.69727 -1.08681 4
    endloop
  endfacet
  facet normal -0.975913 -0.218159 0
    outer loop
      vertex -5.61778 -1.4424 -4
      vertex -5.69727 -1.08681 4
      vertex -5.69727 -1.08681 -4
    endloop
  endfacet
  facet normal -0.975913 -0.218159 0
    outer loop
      vertex -5.69727 -1.08681 4
      vertex -5.61778 -1.4424 -4
      vertex -5.61778 -1.4424 4
    endloop
  endfacet
  facet normal -0.960298 -0.278978 0
    outer loop
      vertex -5.51613 -1.7923 -4
      vertex -5.61778 -1.4424 4
      vertex -5.61778 -1.4424 -4
    endloop
  endfacet
  facet normal -0.960298 -0.278978 0
    outer loop
      vertex -5.61778 -1.4424 4
      vertex -5.51613 -1.7923 -4
      vertex -5.51613 -1.7923 4
    endloop
  endfacet
  facet normal -0.940874 -0.338755 0
    outer loop
      vertex -5.3927 -2.13512 -4
      vertex -5.51613 -1.7923 4
      vertex -5.51613 -1.7923 -4
    endloop
  endfacet
  facet normal -0.940874 -0.338755 0
    outer loop
      vertex -5.51613 -1.7923 4
      vertex -5.3927 -2.13512 -4
      vertex -5.3927 -2.13512 4
    endloop
  endfacet
  facet normal -0.917762 -0.39713 0
    outer loop
      vertex -5.248 -2.46952 -4
      vertex -5.3927 -2.13512 4
      vertex -5.3927 -2.13512 -4
    endloop
  endfacet
  facet normal -0.917762 -0.39713 0
    outer loop
      vertex -5.3927 -2.13512 4
      vertex -5.248 -2.46952 -4
      vertex -5.248 -2.46952 4
    endloop
  endfacet
  facet normal -0.891004 -0.453996 0
    outer loop
      vertex -5.08258 -2.79417 -4
      vertex -5.248 -2.46952 4
      vertex -5.248 -2.46952 -4
    endloop
  endfacet
  facet normal -0.891004 -0.453996 0
    outer loop
      vertex -5.248 -2.46952 4
      vertex -5.08258 -2.79417 -4
      vertex -5.08258 -2.79417 4
    endloop
  endfacet
  facet normal -0.860742 -0.509041 0
    outer loop
      vertex -4.8971 -3.1078 -4
      vertex -5.08258 -2.79417 4
      vertex -5.08258 -2.79417 -4
    endloop
  endfacet
  facet normal -0.860742 -0.509041 0
    outer loop
      vertex -5.08258 -2.79417 4
      vertex -4.8971 -3.1078 -4
      vertex -4.8971 -3.1078 4
    endloop
  endfacet
  facet normal -0.827077 -0.562089 0
    outer loop
      vertex -4.6923 -3.40915 -4
      vertex -4.8971 -3.1078 4
      vertex -4.8971 -3.1078 -4
    endloop
  endfacet
  facet normal -0.827077 -0.562089 0
    outer loop
      vertex -4.8971 -3.1078 4
      vertex -4.6923 -3.40915 -4
      vertex -4.6923 -3.40915 4
    endloop
  endfacet
  facet normal -0.790163 -0.612897 0
    outer loop
      vertex -4.46898 -3.69706 -4
      vertex -4.6923 -3.40915 4
      vertex -4.6923 -3.40915 -4
    endloop
  endfacet
  facet normal -0.790163 -0.612897 0
    outer loop
      vertex -4.6923 -3.40915 4
      vertex -4.46898 -3.69706 -4
      vertex -4.46898 -3.69706 4
    endloop
  endfacet
  facet normal -0.750105 -0.661319 0
    outer loop
      vertex -4.22802 -3.97037 -4
      vertex -4.46898 -3.69706 4
      vertex -4.46898 -3.69706 -4
    endloop
  endfacet
  facet normal -0.750105 -0.661319 0
    outer loop
      vertex -4.46898 -3.69706 4
      vertex -4.22802 -3.97037 -4
      vertex -4.22802 -3.97037 4
    endloop
  endfacet
  facet normal -0.707107 -0.707107 0
    outer loop
      vertex -3.97037 -4.22802 -4
      vertex -4.22802 -3.97037 4
      vertex -4.22802 -3.97037 -4
    endloop
  endfacet
  facet normal -0.707107 -0.707107 0
    outer loop
      vertex -4.22802 -3.97037 4
      vertex -3.97037 -4.22802 -4
      vertex -3.97037 -4.22802 4
    endloop
  endfacet
  facet normal -0.661319 -0.750105 0
    outer loop
      vertex -3.97037 -4.22802 -4
      vertex -3.69706 -4.46898 4
      vertex -3.97037 -4.22802 4
    endloop
  endfacet
  facet normal -0.661319 -0.750105 -0
    outer loop
      vertex -3.69706 -4.46898 4
      vertex -3.97037 -4.22802 -4
      vertex -3.69706 -4.46898 -4
    endloop
  endfacet
  facet normal -0.612897 -0.790163 0
    outer loop
      vertex -3.69706 -4.46898 -4
      vertex -3.40915 -4.6923 4
      vertex -3.69706 -4.46898 4
    endloop
  endfacet
  facet normal -0.612897 -0.790163 -0
    outer loop
      vertex -3.40915 -4.6923 4
      vertex -3.69706 -4.46898 -4
      vertex -3.40915 -4.6923 -4
    endloop
  endfacet
  facet normal -0.562089 -0.827077 0
    outer loop
      vertex -3.40915 -4.6923 -4
      vertex -3.1078 -4.8971 4
      vertex -3.40915 -4.6923 4
    endloop
  endfacet
  facet normal -0.562089 -0.827077 -0
    outer loop
      vertex -3.1078 -4.8971 4
      vertex -3.40915 -4.6923 -4
      vertex -3.1078 -4.8971 -4
    endloop
  endfacet
  facet normal -0.509041 -0.860742 0
    outer loop
      vertex -3.1078 -4.8971 -4
      vertex -2.79417 -5.08258 4
      vertex -3.1078 -4.8971 4
    endloop
  endfacet
  facet normal -0.509041 -0.860742 -0
    outer loop
      vertex -2.79417 -5.08258 4
      vertex -3.1078 -4.8971 -4
      vertex -2.79417 -5.08258 -4
    endloop
  endfacet
  facet normal -0.453996 -0.891004 0
    outer loop
      vertex -2.79417 -5.08258 -4
      vertex -2.46952 -5.248 4
      vertex -2.79417 -5.08258 4
    endloop
  endfacet
  facet normal -0.453996 -0.891004 -0
    outer loop
      vertex -2.46952 -5.248 4
      vertex -2.79417 -5.08258 -4
      vertex -2.46952 -5.248 -4
    endloop
  endfacet
  facet normal -0.39713 -0.917762 0
    outer loop
      vertex -2.46952 -5.248 -4
      vertex -2.13512 -5.3927 4
      vertex -2.46952 -5.248 4
    endloop
  endfacet
  facet normal -0.39713 -0.917762 -0
    outer loop
      vertex -2.13512 -5.3927 4
      vertex -2.46952 -5.248 -4
      vertex -2.13512 -5.3927 -4
    endloop
  endfacet
  facet normal -0.338755 -0.940874 0
    outer loop
      vertex -2.13512 -5.3927 -4
      vertex -1.7923 -5.51613 4
      vertex -2.13512 -5.3927 4
    endloop
  endfacet
  facet normal -0.338755 -0.940874 -0
    outer loop
      vertex -1.7923 -5.51613 4
      vertex -2.13512 -5.3927 -4
      vertex -1.7923 -5.51613 -4
    endloop
  endfacet
  facet normal -0.278978 -0.960298 0
    outer loop
      vertex -1.7923 -5.51613 -4
      vertex -1.4424 -5.61778 4
      vertex -1.7923 -5.51613 4
    endloop
  endfacet
  facet normal -0.278978 -0.960298 -0
    outer loop
      vertex -1.4424 -5.61778 4
      vertex -1.7923 -5.51613 -4
      vertex -1.4424 -5.61778 -4
    endloop
  endfacet
  facet normal -0.218159 -0.975913 0
    outer loop
      vertex -1.4424 -5.61778 -4
      vertex -1.08681 -5.69727 4
      vertex -1.4424 -5.61778 4
    endloop
  endfacet
  facet normal -0.218159 -0.975913 -0
    outer loop
      vertex -1.08681 -5.69727 4
      vertex -1.4424 -5.61778 -4
      vertex -1.08681 -5.69727 -4
    endloop
  endfacet
  facet normal -0.156437 -0.987688 0
    outer loop
      vertex -1.08681 -5.69727 -4
      vertex -0.726933 -5.75427 4
      vertex -1.08681 -5.69727 4
    endloop
  endfacet
  facet normal -0.156437 -0.987688 -0
    outer loop
      vertex -0.726933 -5.75427 4
      vertex -1.08681 -5.69727 -4
      vertex -0.726933 -5.75427 -4
    endloop
  endfacet
  facet normal -0.0941089 -0.995562 0
    outer loop
      vertex -0.726933 -5.75427 -4
      vertex -0.364185 -5.78856 4
      vertex -0.726933 -5.75427 4
    endloop
  endfacet
  facet normal -0.0941089 -0.995562 -0
    outer loop
      vertex -0.364185 -5.78856 4
      vertex -0.726933 -5.75427 -4
      vertex -0.364185 -5.78856 -4
    endloop
  endfacet
  facet normal -0.0313971 -0.999507 0
    outer loop
      vertex -0.364185 -5.78856 -4
      vertex 0 -5.8 4
      vertex -0.364185 -5.78856 4
    endloop
  endfacet
  facet normal -0.0313971 -0.999507 -0
    outer loop
      vertex 0 -5.8 4
      vertex -0.364185 -5.78856 -4
      vertex 0 -5.8 -4
    endloop
  endfacet
  facet normal 0.0313971 -0.999507 0
    outer loop
      vertex 0 -5.8 -4
      vertex 0.364185 -5.78856 4
      vertex 0 -5.8 4
    endloop
  endfacet
  facet normal 0.0313971 -0.999507 0
    outer loop
      vertex 0.364185 -5.78856 4
      vertex 0 -5.8 -4
      vertex 0.364185 -5.78856 -4
    endloop
  endfacet
  facet normal 0.0941089 -0.995562 0
    outer loop
      vertex 0.364185 -5.78856 -4
      vertex 0.726933 -5.75427 4
      vertex 0.364185 -5.78856 4
    endloop
  endfacet
  facet normal 0.0941089 -0.995562 0
    outer loop
      vertex 0.726933 -5.75427 4
      vertex 0.364185 -5.78856 -4
      vertex 0.726933 -5.75427 -4
    endloop
  endfacet
  facet normal 0.156437 -0.987688 0
    outer loop
      vertex 0.726933 -5.75427 -4
      vertex 1.08681 -5.69727 4
      vertex 0.726933 -5.75427 4
    endloop
  endfacet
  facet normal 0.156437 -0.987688 0
    outer loop
      vertex 1.08681 -5.69727 4
      vertex 0.726933 -5.75427 -4
      vertex 1.08681 -5.69727 -4
    endloop
  endfacet
  facet normal 0.218159 -0.975913 0
    outer loop
      vertex 1.08681 -5.69727 -4
      vertex 1.4424 -5.61778 4
      vertex 1.08681 -5.69727 4
    endloop
  endfacet
  facet normal 0.218159 -0.975913 0
    outer loop
      vertex 1.4424 -5.61778 4
      vertex 1.08681 -5.69727 -4
      vertex 1.4424 -5.61778 -4
    endloop
  endfacet
  facet normal 0.278978 -0.960298 0
    outer loop
      vertex 1.4424 -5.61778 -4
      vertex 1.7923 -5.51613 4
      vertex 1.4424 -5.61778 4
    endloop
  endfacet
  facet normal 0.278978 -0.960298 0
    outer loop
      vertex 1.7923 -5.51613 4
      vertex 1.4424 -5.61778 -4
      vertex 1.7923 -5.51613 -4
    endloop
  endfacet
  facet normal 0.338755 -0.940874 0
    outer loop
      vertex 1.7923 -5.51613 -4
      vertex 2.13512 -5.3927 4
      vertex 1.7923 -5.51613 4
    endloop
  endfacet
  facet normal 0.338755 -0.940874 0
    outer loop
      vertex 2.13512 -5.3927 4
      vertex 1.7923 -5.51613 -4
      vertex 2.13512 -5.3927 -4
    endloop
  endfacet
  facet normal 0.39713 -0.917762 0
    outer loop
      vertex 2.13512 -5.3927 -4
      vertex 2.46952 -5.248 4
      vertex 2.13512 -5.3927 4
    endloop
  endfacet
  facet normal 0.39713 -0.917762 0
    outer loop
      vertex 2.46952 -5.248 4
      vertex 2.13512 -5.3927 -4
      vertex 2.46952 -5.248 -4
    endloop
  endfacet
  facet normal 0.453996 -0.891004 0
    outer loop
      vertex 2.46952 -5.248 -4
      vertex 2.79417 -5.08258 4
      vertex 2.46952 -5.248 4
    endloop
  endfacet
  facet normal 0.453996 -0.891004 0
    outer loop
      vertex 2.79417 -5.08258 4
      vertex 2.46952 -5.248 -4
      vertex 2.79417 -5.08258 -4
    endloop
  endfacet
  facet normal 0.509041 -0.860742 0
    outer loop
      vertex 2.79417 -5.08258 -4
      vertex 3.1078 -4.8971 4
      vertex 2.79417 -5.08258 4
    endloop
  endfacet
  facet normal 0.509041 -0.860742 0
    outer loop
      vertex 3.1078 -4.8971 4
      vertex 2.79417 -5.08258 -4
      vertex 3.1078 -4.8971 -4
    endloop
  endfacet
  facet normal 0.562089 -0.827077 0
    outer loop
      vertex 3.1078 -4.8971 -4
      vertex 3.40915 -4.6923 4
      vertex 3.1078 -4.8971 4
    endloop
  endfacet
  facet normal 0.562089 -0.827077 0
    outer loop
      vertex 3.40915 -4.6923 4
      vertex 3.1078 -4.8971 -4
      vertex 3.40915 -4.6923 -4
    endloop
  endfacet
  facet normal 0.612897 -0.790163 0
    outer loop
      vertex 3.40915 -4.6923 -4
      vertex 3.69706 -4.46898 4
      vertex 3.40915 -4.6923 4
    endloop
  endfacet
  facet normal 0.612897 -0.790163 0
    outer loop
      vertex 3.69706 -4.46898 4
      vertex 3.40915 -4.6923 -4
      vertex 3.69706 -4.46898 -4
    endloop
  endfacet
  facet normal 0.661319 -0.750105 0
    outer loop
      vertex 3.69706 -4.46898 -4
      vertex 3.97037 -4.22802 4
      vertex 3.69706 -4.46898 4
    endloop
  endfacet
  facet normal 0.661319 -0.750105 0
    outer loop
      vertex 3.97037 -4.22802 4
      vertex 3.69706 -4.46898 -4
      vertex 3.97037 -4.22802 -4
    endloop
  endfacet
  facet normal 0.707107 -0.707107 0
    outer loop
      vertex 3.97037 -4.22802 4
      vertex 4.22802 -3.97037 -4
      vertex 4.22802 -3.97037 4
    endloop
  endfacet
  facet normal 0.707107 -0.707107 0
    outer loop
      vertex 4.22802 -3.97037 -4
      vertex 3.97037 -4.22802 4
      vertex 3.97037 -4.22802 -4
    endloop
  endfacet
  facet normal 0.750105 -0.661319 0
    outer loop
      vertex 4.22802 -3.97037 4
      vertex 4.46898 -3.69706 -4
      vertex 4.46898 -3.69706 4
    endloop
  endfacet
  facet normal 0.750105 -0.661319 0
    outer loop
      vertex 4.46898 -3.69706 -4
      vertex 4.22802 -3.97037 4
      vertex 4.22802 -3.97037 -4
    endloop
  endfacet
  facet normal 0.790163 -0.612897 0
    outer loop
      vertex 4.46898 -3.69706 4
      vertex 4.6923 -3.40915 -4
      vertex 4.6923 -3.40915 4
    endloop
  endfacet
  facet normal 0.790163 -0.612897 0
    outer loop
      vertex 4.6923 -3.40915 -4
      vertex 4.46898 -3.69706 4
      vertex 4.46898 -3.69706 -4
    endloop
  endfacet
  facet normal 0.827077 -0.562089 0
    outer loop
      vertex 4.6923 -3.40915 4
      vertex 4.8971 -3.1078 -4
      vertex 4.8971 -3.1078 4
    endloop
  endfacet
  facet normal 0.827077 -0.562089 0
    outer loop
      vertex 4.8971 -3.1078 -4
      vertex 4.6923 -3.40915 4
      vertex 4.6923 -3.40915 -4
    endloop
  endfacet
  facet normal 0.860742 -0.509041 0
    outer loop
      vertex 4.8971 -3.1078 4
      vertex 5.08258 -2.79417 -4
      vertex 5.08258 -2.79417 4
    endloop
  endfacet
  facet normal 0.860742 -0.509041 0
    outer loop
      vertex 5.08258 -2.79417 -4
      vertex 4.8971 -3.1078 4
      vertex 4.8971 -3.1078 -4
    endloop
  endfacet
  facet normal 0.891004 -0.453996 0
    outer loop
      vertex 5.08258 -2.79417 4
      vertex 5.248 -2.46952 -4
      vertex 5.248 -2.46952 4
    endloop
  endfacet
  facet normal 0.891004 -0.453996 0
    outer loop
      vertex 5.248 -2.46952 -4
      vertex 5.08258 -2.79417 4
      vertex 5.08258 -2.79417 -4
    endloop
  endfacet
  facet normal 0.917762 -0.39713 0
    outer loop
      vertex 5.248 -2.46952 4
      vertex 5.3927 -2.13512 -4
      vertex 5.3927 -2.13512 4
    endloop
  endfacet
  facet normal 0.917762 -0.39713 0
    outer loop
      vertex 5.3927 -2.13512 -4
      vertex 5.248 -2.46952 4
      vertex 5.248 -2.46952 -4
    endloop
  endfacet
  facet normal 0.940874 -0.338755 0
    outer loop
      vertex 5.3927 -2.13512 4
      vertex 5.51613 -1.7923 -4
      vertex 5.51613 -1.7923 4
    endloop
  endfacet
  facet normal 0.940874 -0.338755 0
    outer loop
      vertex 5.51613 -1.7923 -4
      vertex 5.3927 -2.13512 4
      vertex 5.3927 -2.13512 -4
    endloop
  endfacet
  facet normal 0.960298 -0.278978 0
    outer loop
      vertex 5.51613 -1.7923 4
      vertex 5.61778 -1.4424 -4
      vertex 5.61778 -1.4424 4
    endloop
  endfacet
  facet normal 0.960298 -0.278978 0
    outer loop
      vertex 5.61778 -1.4424 -4
      vertex 5.51613 -1.7923 4
      vertex 5.51613 -1.7923 -4
    endloop
  endfacet
  facet normal 0.975913 -0.218159 0
    outer loop
      vertex 5.61778 -1.4424 4
      vertex 5.69727 -1.08681 -4
      vertex 5.69727 -1.08681 4
    endloop
  endfacet
  facet normal 0.975913 -0.218159 0
    outer loop
      vertex 5.69727 -1.08681 -4
      vertex 5.61778 -1.4424 4
      vertex 5.61778 -1.4424 -4
    endloop
  endfacet
  facet normal 0.987688 -0.156437 0
    outer loop
      vertex 5.69727 -1.08681 4
      vertex 5.75427 -0.726933 -4
      vertex 5.75427 -0.726933 4
    endloop
  endfacet
  facet normal 0.987688 -0.156437 0
    outer loop
      vertex 5.75427 -0.726933 -4
      vertex 5.69727 -1.08681 4
      vertex 5.69727 -1.08681 -4
    endloop
  endfacet
  facet normal 0.995562 -0.0941089 0
    outer loop
      vertex 5.75427 -0.726933 4
      vertex 5.78856 -0.364185 -4
      vertex 5.78856 -0.364185 4
    endloop
  endfacet
  facet normal 0.995562 -0.0941089 0
    outer loop
      vertex 5.78856 -0.364185 -4
      vertex 5.75427 -0.726933 4
      vertex 5.75427 -0.726933 -4
    endloop
  endfacet
  facet normal 0.999507 -0.0313971 0
    outer loop
      vertex 5.78856 -0.364185 4
      vertex 5.8 0 -4
      vertex 5.8 0 4
    endloop
  endfacet
  facet normal 0.999507 -0.0313971 0
    outer loop
      vertex 5.8 0 -4
      vertex 5.78856 -0.364185 4
      vertex 5.78856 -0.364185 -4
    endloop
  endfacet
  facet normal 0 0 -1
    outer loop
      vertex 5.78856 -0.364185 -4
      vertex 5.78856 0.364185 -4
      vertex 5.8 0 -4
    endloop
  endfacet
  facet normal 0 0 -1
    outer loop
      vertex 5.75427 -0.726933 -4
      vertex 5.78856 0.364185 -4
      vertex 5.78856 -0.364185 -4
    endloop
  endfacet
  facet normal 0 0 -1
    outer loop
      vertex 5.75427 -0.726933 -4
      vertex 5.75427 0.726933 -4
      vertex 5.78856 0.364185 -4
    endloop
  endfacet
  facet normal 0 0 -1
    outer loop
      vertex 5.69727 -1.08681 -4
      vertex 5.75427 0.726933 -4
      vertex 5.75427 -0.726933 -4
    endloop
  endfacet
  facet normal 0 0 -1
    outer loop
      vertex 5.69727 -1.08681 -4
      vertex 5.69727 1.08681 -4
      vertex 5.75427 0.726933 -4
    endloop
  endfacet
  facet normal 0 0 -1
    outer loop
      vertex 5.61778 -1.4424 -4
      vertex 5.69727 1.08681 -4
      vertex 5.69727 -1.08681 -4
    endloop
  endfacet
  facet normal 0 0 -1
    outer loop
      vertex 5.61778 -1.4424 -4
      vertex 5.61778 1.4424 -4
      vertex 5.69727 1.08681 -4
    endloop
  endfacet
  facet normal 0 0 -1
    outer loop
      vertex 5.51613 -1.7923 -4
      vertex 5.61778 1.4424 -4
      vertex 5.61778 -1.4424 -4
    endloop
  endfacet
  facet normal 0 0 -1
    outer loop
      vertex 5.51613 -1.7923 -4
      vertex 5.51613 1.7923 -4
      vertex 5.61778 1.4424 -4
    endloop
  endfacet
  facet normal 0 0 -1
    outer loop
      vertex 5.3927 -2.13512 -4
      vertex 5.51613 1.7923 -4
      vertex 5.51613 -1.7923 -4
    endloop
  endfacet
  facet normal 0 0 -1
    outer loop
      vertex 5.3927 -2.13512 -4
      vertex 5.3927 2.13512 -4
      vertex 5.51613 1.7923 -4
    endloop
  endfacet
  facet normal 0 0 -1
    outer loop
      vertex 5.248 -2.46952 -4
      vertex 5.3927 2.13512 -4
      vertex 5.3927 -2.13512 -4
    endloop
  endfacet
  facet normal 0 0 -1
    outer loop
      vertex 5.248 -2.46952 -4
      vertex 5.248 2.46952 -4
      vertex 5.3927 2.13512 -4
    endloop
  endfacet
  facet normal 0 0 -1
    outer loop
      vertex 5.08258 -2.79417 -4
      vertex 5.248 2.46952 -4
      vertex 5.248 -2.46952 -4
    endloop
  endfacet
  facet normal 0 0 -1
    outer loop
      vertex 5.08258 -2.79417 -4
      vertex 5.08258 2.79417 -4
      vertex 5.248 2.46952 -4
    endloop
  endfacet
  facet normal 0 0 -1
    outer loop
      vertex 4.8971 -3.1078 -4
      vertex 5.08258 2.79417 -4
      vertex 5.08258 -2.79417 -4
    endloop
  endfacet
  facet normal 0 0 -1
    outer loop
      vertex 4.8971 -3.1078 -4
      vertex 4.8971 3.1078 -4
      vertex 5.08258 2.79417 -4
    endloop
  endfacet
  facet normal 0 0 -1
    outer loop
      vertex 4.6923 -3.40915 -4
      vertex 4.8971 3.1078 -4
      vertex 4.8971 -3.1078 -4
    endloop
  endfacet
  facet normal 0 0 -1
    outer loop
      vertex 4.6923 -3.40915 -4
      vertex 4.6923 3.40915 -4
      vertex 4.8971 3.1078 -4
    endloop
  endfacet
  facet normal 0 0 -1
    outer loop
      vertex 4.46898 -3.69706 -4
      vertex 4.6923 3.40915 -4
      vertex 4.6923 -3.40915 -4
    endloop
  endfacet
  facet normal 0 0 -1
    outer loop
      vertex 4.46898 -3.69706 -4
      vertex 4.46898 3.69706 -4
      vertex 4.6923 3.40915 -4
    endloop
  endfacet
  facet normal 0 0 -1
    outer loop
      vertex 4.22802 -3.97037 -4
      vertex 4.46898 3.69706 -4
      vertex 4.46898 -3.69706 -4
    endloop
  endfacet
  facet normal 0 0 -1
    outer loop
      vertex 4.22802 -3.97037 -4
      vertex 4.22802 3.97037 -4
      vertex 4.46898 3.69706 -4
    endloop
  endfacet
  facet normal 0 0 -1
    outer loop
      vertex 3.97037 -4.22802 -4
      vertex 4.22802 3.97037 -4
      vertex 4.22802 -3.97037 -4
    endloop
  endfacet
  facet normal 0 0 -1
    outer loop
      vertex 3.97037 -4.22802 -4
      vertex 3.97037 4.22802 -4
      vertex 4.22802 3.97037 -4
    endloop
  endfacet
  facet normal 0 0 -1
    outer loop
      vertex 3.69706 -4.46898 -4
      vertex 3.97037 4.22802 -4
      vertex 3.97037 -4.22802 -4
    endloop
  endfacet
  facet normal 0 0 -1
    outer loop
      vertex 3.69706 -4.46898 -4
      vertex 3.69706 4.46898 -4
      vertex 3.97037 4.22802 -4
    endloop
  endfacet
  facet normal 0 0 -1
    outer loop
      vertex 3.40915 -4.6923 -4
      vertex 3.69706 4.46898 -4
      vertex 3.69706 -4.46898 -4
    endloop
  endfacet
  facet normal 0 0 -1
    outer loop
      vertex 3.40915 -4.6923 -4
      vertex 3.40915 4.6923 -4
      vertex 3.69706 4.46898 -4
    endloop
  endfacet
  facet normal 0 0 -1
    outer loop
      vertex 3.1078 -4.8971 -4
      vertex 3.40915 4.6923 -4
      vertex 3.40915 -4.6923 -4
    endloop
  endfacet
  facet normal 0 0 -1
    outer loop
      vertex 3.1078 -4.8971 -4
      vertex 3.1078 4.8971 -4
      vertex 3.40915 4.6923 -4
    endloop
  endfacet
  facet normal 0 0 -1
    outer loop
      vertex 2.79417 -5.08258 -4
      vertex 3.1078 4.8971 -4
      vertex 3.1078 -4.8971 -4
    endloop
  endfacet
  facet normal 0 0 -1
    outer loop
      vertex 2.79417 -5.08258 -4
      vertex 2.79417 5.08258 -4
      vertex 3.1078 4.8971 -4
    endloop
  endfacet
  facet normal 0 0 -1
    outer loop
      vertex 2.46952 -5.248 -4
      vertex 2.79417 5.08258 -4
      vertex 2.79417 -5.08258 -4
    endloop
  endfacet
  facet normal 0 0 -1
    outer loop
      vertex 2.46952 -5.248 -4
      vertex 2.46952 5.248 -4
      vertex 2.79417 5.08258 -4
    endloop
  endfacet
  facet normal 0 0 -1
    outer loop
      vertex 2.13512 -5.3927 -4
      vertex 2.46952 5.248 -4
      vertex 2.46952 -5.248 -4
    endloop
  endfacet
  facet normal 0 0 -1
    outer loop
      vertex 2.13512 -5.3927 -4
      vertex 2.13512 5.3927 -4
      vertex 2.46952 5.248 -4
    endloop
  endfacet
  facet normal 0 0 -1
    outer loop
      vertex 1.7923 -5.51613 -4
      vertex 2.13512 5.3927 -4
      vertex 2.13512 -5.3927 -4
    endloop
  endfacet
  facet normal 0 0 -1
    outer loop
      vertex 1.7923 -5.51613 -4
      vertex 1.7923 5.51613 -4
      vertex 2.13512 5.3927 -4
    endloop
  endfacet
  facet normal 0 0 -1
    outer loop
      vertex 1.4424 -5.61778 -4
      vertex 1.7923 5.51613 -4
      vertex 1.7923 -5.51613 -4
    endloop
  endfacet
  facet normal 0 0 -1
    outer loop
      vertex 1.4424 -5.61778 -4
      vertex 1.4424 5.61778 -4
      vertex 1.7923 5.51613 -4
    endloop
  endfacet
  facet normal 0 0 -1
    outer loop
      vertex 1.08681 -5.69727 -4
      vertex 1.4424 5.61778 -4
      vertex 1.4424 -5.61778 -4
    endloop
  endfacet
  facet normal 0 0 -1
    outer loop
      vertex 1.08681 -5.69727 -4
      vertex 1.08681 5.69727 -4
      vertex 1.4424 5.61778 -4
    endloop
  endfacet
  facet normal 0 0 -1
    outer loop
      vertex 0.726933 -5.75427 -4
      vertex 1.08681 5.69727 -4
      vertex 1.08681 -5.69727 -4
    endloop
  endfacet
  facet normal 0 0 -1
    outer loop
      vertex 0.726933 -5.75427 -4
      vertex 0.726933 5.75427 -4
      vertex 1.08681 5.69727 -4
    endloop
  endfacet
  facet normal 0 0 -1
    outer loop
      vertex 0.364185 -5.78856 -4
      vertex 0.726933 5.75427 -4
      vertex 0.726933 -5.75427 -4
    endloop
  endfacet
  facet normal 0 0 -1
    outer loop
      vertex 0.364185 -5.78856 -4
      vertex 0.364185 5.78856 -4
      vertex 0.726933 5.75427 -4
    endloop
  endfacet
  facet normal 0 0 -1
    outer loop
      vertex 0 -5.8 -4
      vertex 0.364185 5.78856 -4
      vertex 0.364185 -5.78856 -4
    endloop
  endfacet
  facet normal 0 0 -1
    outer loop
      vertex 0 -5.8 -4
      vertex 0 5.8 -4
      vertex 0.364185 5.78856 -4
    endloop
  endfacet
  facet normal 0 0 -1
    outer loop
      vertex -0.364185 -5.78856 -4
      vertex 0 5.8 -4
      vertex 0 -5.8 -4
    endloop
  endfacet
  facet normal 0 0 -1
    outer loop
      vertex -0.364185 -5.78856 -4
      vertex -0.364185 5.78856 -4
      vertex 0 5.8 -4
    endloop
  endfacet
  facet normal 0 0 -1
    outer loop
      vertex -0.726933 -5.75427 -4
      vertex -0.364185 5.78856 -4
      vertex -0.364185 -5.78856 -4
    endloop
  endfacet
  facet normal 0 0 -1
    outer loop
      vertex -0.726933 -5.75427 -4
      vertex -0.726933 5.75427 -4
      vertex -0.364185 5.78856 -4
    endloop
  endfacet
  facet normal 0 0 -1
    outer loop
      vertex -1.08681 -5.69727 -4
      vertex -0.726933 5.75427 -4
      vertex -0.726933 -5.75427 -4
    endloop
  endfacet
  facet normal 0 0 -1
    outer loop
      vertex -1.08681 -5.69727 -4
      vertex -1.08681 5.69727 -4
      vertex -0.726933 5.75427 -4
    endloop
  endfacet
  facet normal 0 0 -1
    outer loop
      vertex -1.4424 -5.61778 -4
      vertex -1.08681 5.69727 -4
      vertex -1.08681 -5.69727 -4
    endloop
  endfacet
  facet normal 0 0 -1
    outer loop
      vertex -1.4424 -5.61778 -4
      vertex -1.4424 5.61778 -4
      vertex -1.08681 5.69727 -4
    endloop
  endfacet
  facet normal 0 0 -1
    outer loop
      vertex -1.7923 -5.51613 -4
      vertex -1.4424 5.61778 -4
      vertex -1.4424 -5.61778 -4
    endloop
  endfacet
  facet normal 0 0 -1
    outer loop
      vertex -1.7923 -5.51613 -4
      vertex -1.7923 5.51613 -4
      vertex -1.4424 5.61778 -4
    endloop
  endfacet
  facet normal 0 0 -1
    outer loop
      vertex -2.13512 -5.3927 -4
      vertex -1.7923 5.51613 -4
      vertex -1.7923 -5.51613 -4
    endloop
  endfacet
  facet normal 0 0 -1
    outer loop
      vertex -2.13512 -5.3927 -4
      vertex -2.13512 5.3927 -4
      vertex -1.7923 5.51613 -4
    endloop
  endfacet
  facet normal 0 0 -1
    outer loop
      vertex -2.46952 -5.248 -4
      vertex -2.13512 5.3927 -4
      vertex -2.13512 -5.3927 -4
    endloop
  endfacet
  facet normal 0 0 -1
    outer loop
      vertex -2.46952 -5.248 -4
      vertex -2.46952 5.248 -4
      vertex -2.13512 5.3927 -4
    endloop
  endfacet
  facet normal 0 0 -1
    outer loop
      vertex -2.79417 -5.08258 -4
      vertex -2.46952 5.248 -4
      vertex -2.46952 -5.248 -4
    endloop
  endfacet
  facet normal 0 0 -1
    outer loop
      vertex -2.79417 -5.08258 -4
      vertex -2.79417 5.08258 -4
      vertex -2.46952 5.248 -4
    endloop
  endfacet
  facet normal 0 0 -1
    outer loop
      vertex -3.1078 -4.8971 -4
      vertex -2.79417 5.08258 -4
      vertex -2.79417 -5.08258 -4
    endloop
  endfacet
  facet normal 0 0 -1
    outer loop
      vertex -3.1078 -4.8971 -4
      vertex -3.1078 4.8971 -4
      vertex -2.79417 5.08258 -4
    endloop
  endfacet
  facet normal 0 0 -1
    outer loop
      vertex -3.40915 -4.6923 -4
      vertex -3.1078 4.8971 -4
      vertex -3.1078 -4.8971 -4
    endloop
  endfacet
  facet normal 0 0 -1
    outer loop
      vertex -3.40915 -4.6923 -4
      vertex -3.40915 4.6923 -4
      vertex -3.1078 4.8971 -4
    endloop
  endfacet
  facet normal 0 0 -1
    outer loop
      vertex -3.69706 -4.46898 -4
      vertex -3.40915 4.6923 -4
      vertex -3.40915 -4.6923 -4
    endloop
  endfacet
  facet normal 0 0 -1
    outer loop
      vertex -3.69706 -4.46898 -4
      vertex -3.69706 4.46898 -4
      vertex -3.40915 4.6923 -4
    endloop
  endfacet
  facet normal 0 0 -1
    outer loop
      vertex -3.97037 -4.22802 -4
      vertex -3.69706 4.46898 -4
      vertex -3.69706 -4.46898 -4
    endloop
  endfacet
  facet normal 0 0 -1
    outer loop
      vertex -3.97037 -4.22802 -4
      vertex -3.97037 4.22802 -4
      vertex -3.69706 4.46898 -4
    endloop
  endfacet
  facet normal 0 0 -1
    outer loop
      vertex -4.22802 -3.97037 -4
      vertex -3.97037 4.22802 -4
      vertex -3.97037 -4.22802 -4
    endloop
  endfacet
  facet normal 0 0 -1
    outer loop
      vertex -4.22802 -3.97037 -4
      vertex -4.22802 3.97037 -4
      vertex -3.97037 4.22802 -4
    endloop
  endfacet
  facet normal 0 0 -1
    outer loop
      vertex -4.46898 -3.69706 -4
      vertex -4.22802 3.97037 -4
      vertex -4.22802 -3.97037 -4
    endloop
  endfacet
  facet normal 0 0 -1
    outer loop
      vertex -4.46898 -3.69706 -4
      vertex -4.46898 3.69706 -4
      vertex -4.22802 3.97037 -4
    endloop
  endfacet
  facet normal 0 0 -1
    outer loop
      vertex -4.6923 -3.40915 -4
      vertex -4.46898 3.69706 -4
      vertex -4.46898 -3.69706 -4
    endloop
  endfacet
  facet normal 0 0 -1
    outer loop
      vertex -4.6923 -3.40915 -4
      vertex -4.6923 3.40915 -4
      vertex -4.46898 3.69706 -4
    endloop
  endfacet
  facet normal 0 0 -1
    outer loop
      vertex -4.8971 -3.1078 -4
      vertex -4.6923 3.40915 -4
      vertex -4.6923 -3.40915 -4
    endloop
  endfacet
  facet normal 0 0 -1
    outer loop
      vertex -4.8971 -3.1078 -4
      vertex -4.8971 3.1078 -4
      vertex -4.6923 3.40915 -4
    endloop
  endfacet
  facet normal 0 0 -1
    outer loop
      vertex -5.08258 -2.79417 -4
      vertex -4.8971 3.1078 -4
      vertex -4.8971 -3.1078 -4
    endloop
  endfacet
  facet normal 0 0 -1
    outer loop
      vertex -5.08258 -2.79417 -4
      vertex -5.08258 2.79417 -4
      vertex -4.8971 3.1078 -4
    endloop
  endfacet
  facet normal 0 0 -1
    outer loop
      vertex -5.248 -2.46952 -4
      vertex -5.08258 2.79417 -4
      vertex -5.08258 -2.79417 -4
    endloop
  endfacet
  facet normal 0 0 -1
    outer loop
      vertex -5.248 -2.46952 -4
      vertex -5.248 2.46952 -4
      vertex -5.08258 2.79417 -4
    endloop
  endfacet
  facet normal 0 0 -1
    outer loop
      vertex -5.3927 -2.13512 -4
      vertex -5.248 2.46952 -4
      vertex -5.248 -2.46952 -4
    endloop
  endfacet
  facet normal 0 0 -1
    outer loop
      vertex -5.3927 -2.13512 -4
      vertex -5.3927 2.13512 -4
      vertex -5.248 2.46952 -4
    endloop
  endfacet
  facet normal 0 0 -1
    outer loop
      vertex -5.51613 -1.7923 -4
      vertex -5.3927 2.13512 -4
      vertex -5.3927 -2.13512 -4
    endloop
  endfacet
  facet normal 0 0 -1
    outer loop
      vertex -5.51613 -1.7923 -4
      vertex -5.51613 1.7923 -4
      vertex -5.3927 2.13512 -4
    endloop
  endfacet
  facet normal 0 0 -1
    outer loop
      vertex -5.61778 -1.4424 -4
      vertex -5.51613 1.7923 -4
      vertex -5.51613 -1.7923 -4
    endloop
  endfacet
  facet normal 0 0 -1
    outer loop
      vertex -5.61778 -1.4424 -4
      vertex -5.61778 1.4424 -4
      vertex -5.51613 1.7923 -4
    endloop
  endfacet
  facet normal 0 0 -1
    outer loop
      vertex -5.69727 -1.08681 -4
      vertex -5.61778 1.4424 -4
      vertex -5.61778 -1.4424 -4
    endloop
  endfacet
  facet normal 0 0 -1
    outer loop
      vertex -5.69727 -1.08681 -4
      vertex -5.69727 1.08681 -4
      vertex -5.61778 1.4424 -4
    endloop
  endfacet
  facet normal 0 0 -1
    outer loop
      vertex -5.75427 -0.726933 -4
      vertex -5.69727 1.08681 -4
      vertex -5.69727 -1.08681 -4
    endloop
  endfacet
  facet normal 0 0 -1
    outer loop
      vertex -5.75427 -0.726933 -4
      vertex -5.75427 0.726933 -4
      vertex -5.69727 1.08681 -4
    endloop
  endfacet
  facet normal 0 0 -1
    outer loop
      vertex -5.78856 -0.364185 -4
      vertex -5.75427 0.726933 -4
      vertex -5.75427 -0.726933 -4
    endloop
  endfacet
  facet normal 0 0 -1
    outer loop
      vertex -5.78856 -0.364185 -4
      vertex -5.78856 0.364185 -4
      vertex -5.75427 0.726933 -4
    endloop
  endfacet
  facet normal 0 -0 -1
    outer loop
      vertex -5.78856 0.364185 -4
      vertex -5.78856 -0.364185 -4
      vertex -5.8 0 -4
    endloop
  endfacet
  facet normal 0 0 1
    outer loop
      vertex 5.78856 0.364185 4
      vertex 5.78856 -0.364185 4
      vertex 5.8 0 4
    endloop
  endfacet
  facet normal 0 0 1
    outer loop
      vertex 5.75427 0.726933 4
      vertex 5.78856 -0.364185 4
      vertex 5.78856 0.364185 4
    endloop
  endfacet
  facet normal 0 0 1
    outer loop
      vertex 5.75427 0.726933 4
      vertex 5.75427 -0.726933 4
      vertex 5.78856 -0.364185 4
    endloop
  endfacet
  facet normal 0 0 1
    outer loop
      vertex 5.69727 1.08681 4
      vertex 5.75427 -0.726933 4
      vertex 5.75427 0.726933 4
    endloop
  endfacet
  facet normal 0 0 1
    outer loop
      vertex 5.69727 1.08681 4
      vertex 5.69727 -1.08681 4
      vertex 5.75427 -0.726933 4
    endloop
  endfacet
  facet normal 0 0 1
    outer loop
      vertex 5.61778 1.4424 4
      vertex 5.69727 -1.08681 4
      vertex 5.69727 1.08681 4
    endloop
  endfacet
  facet normal 0 0 1
    outer loop
      vertex 5.61778 1.4424 4
      vertex 5.61778 -1.4424 4
      vertex 5.69727 -1.08681 4
    endloop
  endfacet
  facet normal 0 0 1
    outer loop
      vertex 5.51613 1.7923 4
      vertex 5.61778 -1.4424 4
      vertex 5.61778 1.4424 4
    endloop
  endfacet
  facet normal 0 0 1
    outer loop
      vertex 5.51613 1.7923 4
      vertex 5.51613 -1.7923 4
      vertex 5.61778 -1.4424 4
    endloop
  endfacet
  facet normal 0 0 1
    outer loop
      vertex 5.3927 2.13512 4
      vertex 5.51613 -1.7923 4
      vertex 5.51613 1.7923 4
    endloop
  endfacet
  facet normal 0 0 1
    outer loop
      vertex 5.3927 2.13512 4
      vertex 5.3927 -2.13512 4
      vertex 5.51613 -1.7923 4
    endloop
  endfacet
  facet normal 0 0 1
    outer loop
      vertex 5.248 2.46952 4
      vertex 5.3927 -2.13512 4
      vertex 5.3927 2.13512 4
    endloop
  endfacet
  facet normal 0 0 1
    outer loop
      vertex 5.248 2.46952 4
      vertex 5.248 -2.46952 4
      vertex 5.3927 -2.13512 4
    endloop
  endfacet
  facet normal 0 0 1
    outer loop
      vertex 5.08258 2.79417 4
      vertex 5.248 -2.46952 4
      vertex 5.248 2.46952 4
    endloop
  endfacet
  facet normal 0 0 1
    outer loop
      vertex 5.08258 2.79417 4
      vertex 5.08258 -2.79417 4
      vertex 5.248 -2.46952 4
    endloop
  endfacet
  facet normal 0 0 1
    outer loop
      vertex 4.8971 3.1078 4
      vertex 5.08258 -2.79417 4
      vertex 5.08258 2.79417 4
    endloop
  endfacet
  facet normal 0 0 1
    outer loop
      vertex 4.8971 3.1078 4
      vertex 4.8971 -3.1078 4
      vertex 5.08258 -2.79417 4
    endloop
  endfacet
  facet normal 0 0 1
    outer loop
      vertex 4.6923 3.40915 4
      vertex 4.8971 -3.1078 4
      vertex 4.8971 3.1078 4
    endloop
  endfacet
  facet normal 0 0 1
    outer loop
      vertex 4.6923 3.40915 4
      vertex 4.6923 -3.40915 4
      vertex 4.8971 -3.1078 4
    endloop
  endfacet
  facet normal 0 0 1
    outer loop
      vertex 4.46898 3.69706 4
      vertex 4.6923 -3.40915 4
      vertex 4.6923 3.40915 4
    endloop
  endfacet
  facet normal 0 0 1
    outer loop
      vertex 4.46898 3.69706 4
      vertex 4.46898 -3.69706 4
      vertex 4.6923 -3.40915 4
    endloop
  endfacet
  facet normal 0 0 1
    outer loop
      vertex 4.22802 3.97037 4
      vertex 4.46898 -3.69706 4
      vertex 4.46898 3.69706 4
    endloop
  endfacet
  facet normal 0 0 1
    outer loop
      vertex 4.22802 3.97037 4
      vertex 4.22802 -3.97037 4
      vertex 4.46898 -3.69706 4
    endloop
  endfacet
  facet normal 0 0 1
    outer loop
      vertex 3.97037 4.22802 4
      vertex 4.22802 -3.97037 4
      vertex 4.22802 3.97037 4
    endloop
  endfacet
  facet normal 0 0 1
    outer loop
      vertex 3.97037 4.22802 4
      vertex 3.97037 -4.22802 4
      vertex 4.22802 -3.97037 4
    endloop
  endfacet
  facet normal 0 0 1
    outer loop
      vertex 3.69706 4.46898 4
      vertex 3.97037 -4.22802 4
      vertex 3.97037 4.22802 4
    endloop
  endfacet
  facet normal 0 0 1
    outer loop
      vertex 3.69706 4.46898 4
      vertex 3.69706 -4.46898 4
      vertex 3.97037 -4.22802 4
    endloop
  endfacet
  facet normal 0 0 1
    outer loop
      vertex 3.40915 4.6923 4
      vertex 3.69706 -4.46898 4
      vertex 3.69706 4.46898 4
    endloop
  endfacet
  facet normal 0 0 1
    outer loop
      vertex 3.40915 4.6923 4
      vertex 3.40915 -4.6923 4
      vertex 3.69706 -4.46898 4
    endloop
  endfacet
  facet normal 0 0 1
    outer loop
      vertex 3.1078 4.8971 4
      vertex 3.40915 -4.6923 4
      vertex 3.40915 4.6923 4
    endloop
  endfacet
  facet normal 0 0 1
    outer loop
      vertex 3.1078 4.8971 4
      vertex 3.1078 -4.8971 4
      vertex 3.40915 -4.6923 4
    endloop
  endfacet
  facet normal 0 0 1
    outer loop
      vertex 2.79417 5.08258 4
      vertex 3.1078 -4.8971 4
      vertex 3.1078 4.8971 4
    endloop
  endfacet
  facet normal 0 0 1
    outer loop
      vertex 2.79417 5.08258 4
      vertex 2.79417 -5.08258 4
      vertex 3.1078 -4.8971 4
    endloop
  endfacet
  facet normal 0 0 1
    outer loop
      vertex 2.46952 5.248 4
      vertex 2.79417 -5.08258 4
      vertex 2.79417 5.08258 4
    endloop
  endfacet
  facet normal 0 0 1
    outer loop
      vertex 2.46952 5.248 4
      vertex 2.46952 -5.248 4
      vertex 2.79417 -5.08258 4
    endloop
  endfacet
  facet normal 0 0 1
    outer loop
      vertex 2.13512 5.3927 4
      vertex 2.46952 -5.248 4
      vertex 2.46952 5.248 4
    endloop
  endfacet
  facet normal 0 0 1
    outer loop
      vertex 2.13512 5.3927 4
      vertex 2.13512 -5.3927 4
      vertex 2.46952 -5.248 4
    endloop
  endfacet
  facet normal 0 0 1
    outer loop
      vertex 1.7923 5.51613 4
      vertex 2.13512 -5.3927 4
      vertex 2.13512 5.3927 4
    endloop
  endfacet
  facet normal 0 0 1
    outer loop
      vertex 1.7923 5.51613 4
      vertex 1.7923 -5.51613 4
      vertex 2.13512 -5.3927 4
    endloop
  endfacet
  facet normal 0 0 1
    outer loop
      vertex 1.4424 5.61778 4
      vertex 1.7923 -5.51613 4
      vertex 1.7923 5.51613 4
    endloop
  endfacet
  facet normal 0 0 1
    outer loop
      vertex 1.4424 5.61778 4
      vertex 1.4424 -5.61778 4
      vertex 1.7923 -5.51613 4
    endloop
  endfacet
  facet normal 0 0 1
    outer loop
      vertex 1.08681 5.69727 4
      vertex 1.4424 -5.61778 4
      vertex 1.4424 5.61778 4
    endloop
  endfacet
  facet normal 0 0 1
    outer loop
      vertex 1.08681 5.69727 4
      vertex 1.08681 -5.69727 4
      vertex 1.4424 -5.61778 4
    endloop
  endfacet
  facet normal 0 0 1
    outer loop
      vertex 0.726933 5.75427 4
      vertex 1.08681 -5.69727 4
      vertex 1.08681 5.69727 4
    endloop
  endfacet
  facet normal 0 0 1
    outer loop
      vertex 0.726933 5.75427 4
      vertex 0.726933 -5.75427 4
      vertex 1.08681 -5.69727 4
    endloop
  endfacet
  facet normal 0 0 1
    outer loop
      vertex 0.364185 5.78856 4
      vertex 0.726933 -5.75427 4
      vertex 0.726933 5.75427 4
    endloop
  endfacet
  facet normal 0 0 1
    outer loop
      vertex 0.364185 5.78856 4
      vertex 0.364185 -5.78856 4
      vertex 0.726933 -5.75427 4
    endloop
  endfacet
  facet normal 0 0 1
    outer loop
      vertex 0 5.8 4
      vertex 0.364185 -5.78856 4
      vertex 0.364185 5.78856 4
    endloop
  endfacet
  facet normal 0 0 1
    outer loop
      vertex 0 5.8 4
      vertex 0 -5.8 4
      vertex 0.364185 -5.78856 4
    endloop
  endfacet
  facet normal -0 0 1
    outer loop
      vertex -0.364185 5.78856 4
      vertex 0 -5.8 4
      vertex 0 5.8 4
    endloop
  endfacet
  facet normal 0 0 1
    outer loop
      vertex -0.364185 5.78856 4
      vertex -0.364185 -5.78856 4
      vertex 0 -5.8 4
    endloop
  endfacet
  facet normal -0 0 1
    outer loop
      vertex -0.726933 5.75427 4
      vertex -0.364185 -5.78856 4
      vertex -0.364185 5.78856 4
    endloop
  endfacet
  facet normal 0 0 1
    outer loop
      vertex -0.726933 5.75427 4
      vertex -0.726933 -5.75427 4
      vertex -0.364185 -5.78856 4
    endloop
  endfacet
  facet normal -0 0 1
    outer loop
      vertex -1.08681 5.69727 4
      vertex -0.726933 -5.75427 4
      vertex -0.726933 5.75427 4
    endloop
  endfacet
  facet normal 0 0 1
    outer loop
      vertex -1.08681 5.69727 4
      vertex -1.08681 -5.69727 4
      vertex -0.726933 -5.75427 4
    endloop
  endfacet
  facet normal -0 0 1
    outer loop
      vertex -1.4424 5.61778 4
      vertex -1.08681 -5.69727 4
      vertex -1.08681 5.69727 4
    endloop
  endfacet
  facet normal 0 0 1
    outer loop
      vertex -1.4424 5.61778 4
      vertex -1.4424 -5.61778 4
      vertex -1.08681 -5.69727 4
    endloop
  endfacet
  facet normal -0 0 1
    outer loop
      vertex -1.7923 5.51613 4
      vertex -1.4424 -5.61778 4
      vertex -1.4424 5.61778 4
    endloop
  endfacet
  facet normal 0 0 1
    outer loop
      vertex -1.7923 5.51613 4
      vertex -1.7923 -5.51613 4
      vertex -1.4424 -5.61778 4
    endloop
  endfacet
  facet normal -0 0 1
    outer loop
      vertex -2.13512 5.3927 4
      vertex -1.7923 -5.51613 4
      vertex -1.7923 5.51613 4
    endloop
  endfacet
  facet normal 0 0 1
    outer loop
      vertex -2.13512 5.3927 4
      vertex -2.13512 -5.3927 4
      vertex -1.7923 -5.51613 4
    endloop
  endfacet
  facet normal -0 0 1
    outer loop
      vertex -2.46952 5.248 4
      vertex -2.13512 -5.3927 4
      vertex -2.13512 5.3927 4
    endloop
  endfacet
  facet normal 0 0 1
    outer loop
      vertex -2.46952 5.248 4
      vertex -2.46952 -5.248 4
      vertex -2.13512 -5.3927 4
    endloop
  endfacet
  facet normal -0 0 1
    outer loop
      vertex -2.79417 5.08258 4
      vertex -2.46952 -5.248 4
      vertex -2.46952 5.248 4
    endloop
  endfacet
  facet normal 0 0 1
    outer loop
      vertex -2.79417 5.08258 4
      vertex -2.79417 -5.08258 4
      vertex -2.46952 -5.248 4
    endloop
  endfacet
  facet normal -0 0 1
    outer loop
      vertex -3.1078 4.8971 4
      vertex -2.79417 -5.08258 4
      vertex -2.79417 5.08258 4
    endloop
  endfacet
  facet normal 0 0 1
    outer loop
      vertex -3.1078 4.8971 4
      vertex -3.1078 -4.8971 4
      vertex -2.79417 -5.08258 4
    endloop
  endfacet
  facet normal -0 0 1
    outer loop
      vertex -3.40915 4.6923 4
      vertex -3.1078 -4.8971 4
      vertex -3.1078 4.8971 4
    endloop
  endfacet
  facet normal 0 0 1
    outer loop
      vertex -3.40915 4.6923 4
      vertex -3.40915 -4.6923 4
      vertex -3.1078 -4.8971 4
    endloop
  endfacet
  facet normal -0 0 1
    outer loop
      vertex -3.69706 4.46898 4
      vertex -3.40915 -4.6923 4
      vertex -3.40915 4.6923 4
    endloop
  endfacet
  facet normal 0 0 1
    outer loop
      vertex -3.69706 4.46898 4
      vertex -3.69706 -4.46898 4
      vertex -3.40915 -4.6923 4
    endloop
  endfacet
  facet normal -0 0 1
    outer loop
      vertex -3.97037 4.22802 4
      vertex -3.69706 -4.46898 4
      vertex -3.69706 4.46898 4
    endloop
  endfacet
  facet normal 0 0 1
    outer loop
      vertex -3.97037 4.22802 4
      vertex -3.97037 -4.22802 4
      vertex -3.69706 -4.46898 4
    endloop
  endfacet
  facet normal -0 0 1
    outer loop
      vertex -4.22802 3.97037 4
      vertex -3.97037 -4.22802 4
      vertex -3.97037 4.22802 4
    endloop
  endfacet
  facet normal 0 0 1
    outer loop
      vertex -4.22802 3.97037 4
      vertex -4.22802 -3.97037 4
      vertex -3.97037 -4.22802 4
    endloop
  endfacet
  facet normal -0 0 1
    outer loop
      vertex -4.46898 3.69706 4
      vertex -4.22802 -3.97037 4
      vertex -4.22802 3.97037 4
    endloop
  endfacet
  facet normal 0 0 1
    outer loop
      vertex -4.46898 3.69706 4
      vertex -4.46898 -3.69706 4
      vertex -4.22802 -3.97037 4
    endloop
  endfacet
  facet normal -0 0 1
    outer loop
      vertex -4.6923 3.40915 4
      vertex -4.46898 -3.69706 4
      vertex -4.46898 3.69706 4
    endloop
  endfacet
  facet normal 0 0 1
    outer loop
      vertex -4.6923 3.40915 4
      vertex -4.6923 -3.40915 4
      vertex -4.46898 -3.69706 4
    endloop
  endfacet
  facet normal -0 0 1
    outer loop
      vertex -4.8971 3.1078 4
      vertex -4.6923 -3.40915 4
      vertex -4.6923 3.40915 4
    endloop
  endfacet
  facet normal 0 0 1
    outer loop
      vertex -4.8971 3.1078 4
      vertex -4.8971 -3.1078 4
      vertex -4.6923 -3.40915 4
    endloop
  endfacet
  facet normal -0 0 1
    outer loop
      vertex -5.08258 2.79417 4
      vertex -4.8971 -3.1078 4
      vertex -4.8971 3.1078 4
    endloop
  endfacet
  facet normal 0 0 1
    outer loop
      vertex -5.08258 2.79417 4
      vertex -5.08258 -2.79417 4
      vertex -4.8971 -3.1078 4
    endloop
  endfacet
  facet normal -0 0 1
    outer loop
      vertex -5.248 2.46952 4
      vertex -5.08258 -2.79417 4
      vertex -5.08258 2.79417 4
    endloop
  endfacet
  facet normal 0 0 1
    outer loop
      vertex -5.248 2.46952 4
      vertex -5.248 -2.46952 4
      vertex -5.08258 -2.79417 4
    endloop
  endfacet
  facet normal -0 0 1
    outer loop
      vertex -5.3927 2.13512 4
      vertex -5.248 -2.46952 4
      vertex -5.248 2.46952 4
    endloop
  endfacet
  facet normal 0 0 1
    outer loop
      vertex -5.3927 2.13512 4
      vertex -5.3927 -2.13512 4
      vertex -5.248 -2.46952 4
    endloop
  endfacet
  facet normal -0 0 1
    outer loop
      vertex -5.51613 1.7923 4
      vertex -5.3927 -2.13512 4
      vertex -5.3927 2.13512 4
    endloop
  endfacet
  facet normal 0 0 1
    outer loop
      vertex -5.51613 1.7923 4
      vertex -5.51613 -1.7923 4
      vertex -5.3927 -2.13512 4
    endloop
  endfacet
  facet normal -0 0 1
    outer loop
      vertex -5.61778 1.4424 4
      vertex -5.51613 -1.7923 4
      vertex -5.51613 1.7923 4
    endloop
  endfacet
  facet normal 0 0 1
    outer loop
      vertex -5.61778 1.4424 4
      vertex -5.61778 -1.4424 4
      vertex -5.51613 -1.7923 4
    endloop
  endfacet
  facet normal -0 0 1
    outer loop
      vertex -5.69727 1.08681 4
      vertex -5.61778 -1.4424 4
      vertex -5.61778 1.4424 4
    endloop
  endfacet
  facet normal 0 0 1
    outer loop
      vertex -5.69727 1.08681 4
      vertex -5.69727 -1.08681 4
      vertex -5.61778 -1.4424 4
    endloop
  endfacet
  facet normal -0 0 1
    outer loop
      vertex -5.75427 0.726933 4
      vertex -5.69727 -1.08681 4
      vertex -5.69727 1.08681 4
    endloop
  endfacet
  facet normal 0 0 1
    outer loop
      vertex -5.75427 0.726933 4
      vertex -5.75427 -0.726933 4
      vertex -5.69727 -1.08681 4
    endloop
  endfacet
  facet normal -0 0 1
    outer loop
      vertex -5.78856 0.364185 4
      vertex -5.75427 -0.726933 4
      vertex -5.75427 0.726933 4
    endloop
  endfacet
  facet normal 0 0 1
    outer loop
      vertex -5.78856 0.364185 4
      vertex -5.78856 -0.364185 4
      vertex -5.75427 -0.726933 4
    endloop
  endfacet
  facet normal 0 -0 1
    outer loop
      vertex -5.78856 -0.364185 4
      vertex -5.78856 0.364185 4
      vertex -5.8 0 4
    endloop
  endfacet
endsolid OpenSCAD_Model
